<svg width="24" height="20" viewBox="0 0 24 20" fill="none" xmlns="http://www.w3.org/2000/svg">
<path d="M8.57143 3.33333H15.4286V1.66667H8.57143V3.33333ZM24 11.6667V17.9167C24 18.4896 23.7902 18.98 23.3705 19.388C22.9509 19.796 22.4464 20 21.8571 20H2.14286C1.55357 20 1.04911 19.796 0.629464 19.388C0.209821 18.98 0 18.4896 0 17.9167V11.6667H9V13.75C9 13.9757 9.08482 14.171 9.25446 14.3359C9.42411 14.5009 9.625 14.5833 9.85714 14.5833H14.1429C14.375 14.5833 14.5759 14.5009 14.7455 14.3359C14.9152 14.171 15 13.9757 15 13.75V11.6667H24ZM13.7143 11.6667V13.3333H10.2857V11.6667H13.7143ZM24 5.41667V10.4167H0V5.41667C0 4.84375 0.209821 4.3533 0.629464 3.94531C1.04911 3.53733 1.55357 3.33333 2.14286 3.33333H6.85714V1.25C6.85714 0.902778 6.98214 0.607639 7.23214 0.364583C7.48214 0.121528 7.78571 0 8.14286 0H15.8571C16.2143 0 16.5179 0.121528 16.7679 0.364583C17.0179 0.607639 17.1429 0.902778 17.1429 1.25V3.33333H21.8571C22.4464 3.33333 22.9509 3.53733 23.3705 3.94531C23.7902 4.3533 24 4.84375 24 5.41667Z" fill="currentColor"/>
</svg>
