<svg width="24" height="20" viewBox="0 0 24 20" fill="none" xmlns="http://www.w3.org/2000/svg">
<path d="M2.66667 0C1.19583 0 0 1.28125 0 2.85714V17.1429C0 18.7188 1.19583 20 2.66667 20H21.3333C22.8042 20 24 18.7188 24 17.1429V2.85714C24 1.28125 22.8042 0 21.3333 0H2.66667ZM6 11.4286H8.66667C10.5083 11.4286 12 13.0268 12 15C12 15.3929 11.7 15.7143 11.3333 15.7143H3.33333C2.96667 15.7143 2.66667 15.3929 2.66667 15C2.66667 13.0268 4.15833 11.4286 6 11.4286ZM5 7.14286C5 6.81455 5.06035 6.48946 5.17761 6.18615C5.29488 5.88283 5.46675 5.60724 5.68342 5.37509C5.90009 5.14294 6.15731 4.9588 6.44041 4.83316C6.7235 4.70752 7.02692 4.64286 7.33333 4.64286C7.63975 4.64286 7.94317 4.70752 8.22626 4.83316C8.50935 4.9588 8.76658 5.14294 8.98325 5.37509C9.19992 5.60724 9.37179 5.88283 9.48905 6.18615C9.60631 6.48946 9.66667 6.81455 9.66667 7.14286C9.66667 7.47116 9.60631 7.79625 9.48905 8.09957C9.37179 8.40288 9.19992 8.67848 8.98325 8.91062C8.76658 9.14277 8.50935 9.32692 8.22626 9.45256C7.94317 9.57819 7.63975 9.64286 7.33333 9.64286C7.02692 9.64286 6.7235 9.57819 6.44041 9.45256C6.15731 9.32692 5.90009 9.14277 5.68342 8.91062C5.46675 8.67848 5.29488 8.40288 5.17761 8.09957C5.06035 7.79625 5 7.47116 5 7.14286ZM15 5H19.6667C20.2208 5 20.6667 5.47768 20.6667 6.07143C20.6667 6.66518 20.2208 7.14286 19.6667 7.14286H15C14.4458 7.14286 14 6.66518 14 6.07143C14 5.47768 14.4458 5 15 5ZM15 9.28571H19.6667C20.2208 9.28571 20.6667 9.76339 20.6667 10.3571C20.6667 10.9509 20.2208 11.4286 19.6667 11.4286H15C14.4458 11.4286 14 10.9509 14 10.3571C14 9.76339 14.4458 9.28571 15 9.28571Z" fill="currentColor"/>
</svg>
