<svg width="24" height="20" viewBox="0 0 24 20" fill="none" xmlns="http://www.w3.org/2000/svg">
<path d="M2 4L4 4L4 2L8.68373 2.00019L8.68373 4.00006L14.7541 4.00006L14.7539 2.00002L19.0002 1.99999L19.0002 4.00006L21.5002 4.00008L21.5002 9.99998L21.0002 9.99998L19.0002 12L11.5002 19L2.00038 10L2 4Z" fill="currentColor"/>
<path d="M8.42909 0H4.21455V2H2.10727V4H0V10H2.10727V12H4.21455V14H6.32182V16H8.42909V18H10.5364V20H12.6436V18H14.7509V16H16.8582V14H18.9655V12H21.0727V10H23.18V4H21.0727V2H18.9655V0H14.7509V2H12.6436V4H10.5364V2H8.42909V0ZM8.42909 2V4H10.5364V6H12.6436V4H14.7509V2H18.9655V4H21.0727V10H18.9655V12H16.8582V14H14.7509V16H12.6436V18H10.5364V16H8.42909V14H6.32182V12H4.21455V10H2.10727V4H4.21455V2H8.42909Z" className="text-primary" fill="currentColor" />
<path d="M5 5H6V4H7V5H6V6H5V7H4V6H5V5Z" fill="white"/>
</svg>
