<svg width="24" height="20" viewBox="0 0 24 20" fill="currentColor" xmlns="http://www.w3.org/2000/svg">
<path d="M14.7769 0.042079C15.062 0.122794 15.3036 0.314173 15.4486 0.574135C15.5935 0.834096 15.63 1.14136 15.5499 1.42836L10.6015 19.1791C10.5619 19.3213 10.4948 19.4542 10.4042 19.5703C10.3135 19.6864 10.201 19.7834 10.0732 19.8558C9.94526 19.9281 9.80446 19.9744 9.65879 19.992C9.51313 20.0096 9.36545 19.9981 9.22418 19.9582C9.08292 19.9184 8.95084 19.8509 8.83549 19.7597C8.72014 19.6684 8.62377 19.5552 8.55189 19.4265C8.48 19.2977 8.43402 19.156 8.41655 19.0094C8.39908 18.8628 8.41048 18.7141 8.45008 18.572L13.3985 0.821232C13.4381 0.678913 13.5052 0.545846 13.5959 0.429641C13.6866 0.313436 13.7992 0.216374 13.9272 0.144008C14.0553 0.0716419 14.1962 0.0253911 14.342 0.00790106C14.4878 -0.00958896 14.6356 0.00202503 14.7769 0.042079ZM6.64608 4.43479C6.85549 4.64563 6.97313 4.93155 6.97313 5.22968C6.97313 5.52781 6.85549 5.81373 6.64608 6.02457L2.69739 10.0002L6.64608 13.9746C6.74986 14.079 6.83221 14.203 6.8884 14.3394C6.9446 14.4758 6.97355 14.622 6.9736 14.7697C6.97365 14.9174 6.9448 15.0636 6.8887 15.2001C6.8326 15.3365 6.75035 15.4605 6.64664 15.565C6.54293 15.6694 6.41979 15.7523 6.28426 15.8089C6.14873 15.8654 6.00346 15.8946 5.85674 15.8946C5.71002 15.8947 5.56472 15.8656 5.42915 15.8092C5.29358 15.7527 5.17039 15.6699 5.0666 15.5655L0.327051 10.7951C0.11764 10.5842 0 10.2983 0 10.0002C0 9.70203 0.11764 9.41611 0.327051 9.20527L5.0666 4.43479C5.27608 4.22401 5.56015 4.1056 5.85634 4.1056C6.15254 4.1056 6.43661 4.22401 6.64608 4.43479ZM17.3539 6.02457C17.2472 5.92086 17.1621 5.7968 17.1036 5.65963C17.045 5.52246 17.0142 5.37492 17.0129 5.22564C17.0117 5.07635 17.0399 4.9283 17.0961 4.79013C17.1522 4.65195 17.2352 4.52642 17.3401 4.42085C17.445 4.31529 17.5697 4.2318 17.707 4.17527C17.8442 4.11874 17.9913 4.09029 18.1396 4.09159C18.288 4.09289 18.4345 4.1239 18.5708 4.18283C18.7071 4.24175 18.8304 4.32741 18.9334 4.43479L23.6729 9.20527C23.8824 9.41611 24 9.70203 24 10.0002C24 10.2983 23.8824 10.5842 23.6729 10.7951L18.9334 15.5655C18.7238 15.7764 18.4396 15.8947 18.1433 15.8946C17.8469 15.8945 17.5628 15.7759 17.3534 15.565C17.1439 15.354 17.0263 15.0679 17.0264 14.7697C17.0265 14.4714 17.1443 14.1854 17.3539 13.9746L21.3026 10.0002L17.3539 6.02457Z" fill="currentColor"/>
</svg>
