<svg width="14" height="16" viewBox="0 0 14 16" fill="none" xmlns="http://www.w3.org/2000/svg">
<path d="M2 5H4V3H2V5ZM0 2.5C0 1.67188 0.671875 1 1.5 1H4.5C5.32812 1 6 1.67188 6 2.5V5.5C6 6.32812 5.32812 7 4.5 7H1.5C0.671875 7 0 6.32812 0 5.5V2.5ZM2 13H4V11H2V13ZM0 10.5C0 9.67188 0.671875 9 1.5 9H4.5C5.32812 9 6 9.67188 6 10.5V13.5C6 14.3281 5.32812 15 4.5 15H1.5C0.671875 15 0 14.3281 0 13.5V10.5ZM10 3V5H12V3H10ZM9.5 1H12.5C13.3281 1 14 1.67188 14 2.5V5.5C14 6.32812 13.3281 7 12.5 7H9.5C8.67188 7 8 6.32812 8 5.5V2.5C8 1.67188 8.67188 1 9.5 1ZM9 11C8.73478 11 8.48043 10.8946 8.29289 10.7071C8.10536 10.5196 8 10.2652 8 10C8 9.73478 8.10536 9.48043 8.29289 9.29289C8.48043 9.10536 8.73478 9 9 9C9.26522 9 9.51957 9.10536 9.70711 9.29289C9.89464 9.48043 10 9.73478 10 10C10 10.2652 9.89464 10.5196 9.70711 10.7071C9.51957 10.8946 9.26522 11 9 11ZM9 13C9.55313 13 10 13.4469 10 14C10 14.5531 9.55313 15 9 15C8.44687 15 8 14.5531 8 14C8 13.4469 8.44687 13 9 13ZM12 14C12 13.4469 12.4469 13 13 13C13.5531 13 14 13.4469 14 14C14 14.5531 13.5531 15 13 15C12.4469 15 12 14.5531 12 14ZM13 11C12.7348 11 12.4804 10.8946 12.2929 10.7071C12.1054 10.5196 12 10.2652 12 10C12 9.73478 12.1054 9.48043 12.2929 9.29289C12.4804 9.10536 12.7348 9 13 9C13.2652 9 13.5196 9.10536 13.7071 9.29289C13.8946 9.48043 14 9.73478 14 10C14 10.2652 13.8946 10.5196 13.7071 10.7071C13.5196 10.8946 13.2652 11 13 11ZM12 12C12 12.2652 11.8946 12.5196 11.7071 12.7071C11.5196 12.8946 11.2652 13 11 13C10.7348 13 10.4804 12.8946 10.2929 12.7071C10.1054 12.5196 10 12.2652 10 12C10 11.7348 10.1054 11.4804 10.2929 11.2929C10.4804 11.1054 10.7348 11 11 11C11.2652 11 11.5196 11.1054 11.7071 11.2929C11.8946 11.4804 12 11.7348 12 12Z" fill="currentColor"/>
</svg>
