<svg width="16" height="16" viewBox="0 0 16 16" fill="none" xmlns="http://www.w3.org/2000/svg">
<path d="M6.102 3.60537C6.94667 2.09071 7.36867 1.33337 8 1.33337C8.63133 1.33337 9.05333 2.09071 9.898 3.60537L10.1167 3.99737C10.3567 4.42804 10.4767 4.64337 10.6633 4.78537C10.85 4.92737 11.0833 4.98004 11.55 5.08537L11.974 5.18137C13.614 5.55271 14.4333 5.73804 14.6287 6.36537C14.8233 6.99204 14.2647 7.64604 13.1467 8.95337L12.8573 9.29137C12.54 9.66271 12.3807 9.84871 12.3093 10.078C12.238 10.308 12.262 10.556 12.31 11.0514L12.354 11.5027C12.5227 13.2474 12.6073 14.1194 12.0967 14.5067C11.586 14.894 10.818 14.5407 9.28333 13.834L8.88533 13.6514C8.44933 13.45 8.23133 13.35 8 13.35C7.76867 13.35 7.55067 13.45 7.11467 13.6514L6.71733 13.834C5.182 14.5407 4.414 14.894 3.904 14.5074C3.39267 14.1194 3.47733 13.2474 3.646 11.5027L3.69 11.052C3.738 10.556 3.762 10.308 3.69 10.0787C3.61933 9.84871 3.46 9.66271 3.14267 9.29204L2.85333 8.95337C1.73533 7.64671 1.17667 6.99271 1.37133 6.36537C1.566 5.73804 2.38667 5.55204 4.02667 5.18137L4.45067 5.08537C4.91667 4.98004 5.14933 4.92737 5.33667 4.78537C5.524 4.64337 5.64333 4.42804 5.88333 3.99737L6.102 3.60537Z" fill="currentColor"/>
</svg>
