<svg width="16" height="16" viewBox="0 0 16 16" fill="none" xmlns="http://www.w3.org/2000/svg">
<path d="M7.32712 0.33389L0.334493 7.32064C0.245072 7.40972 0.174118 7.51557 0.125704 7.63213C0.0772902 7.7487 0.0523682 7.87367 0.0523682 7.99989C0.0523682 8.12611 0.0772902 8.25108 0.125704 8.36764C0.174118 8.48421 0.245072 8.59006 0.334493 8.67914L7.32712 15.6659C7.41632 15.7552 7.52224 15.826 7.63882 15.8743C7.7554 15.9226 7.88036 15.9475 8.00656 15.9475C8.13275 15.9475 8.25771 15.9226 8.37429 15.8743C8.49088 15.826 8.59679 15.7552 8.68599 15.6659L11.6181 12.7363C11.6981 12.6563 11.7616 12.5613 11.8049 12.4568C11.8482 12.3523 11.8705 12.2403 11.8705 12.1271C11.8705 12.014 11.8482 11.902 11.8049 11.7975C11.7616 11.693 11.6981 11.598 11.6181 11.518C11.4564 11.3564 11.2371 11.2656 11.0085 11.2656C10.7799 11.2656 10.5606 11.3564 10.3989 11.518L8.17637 13.7386C8.08262 13.8324 7.94037 13.8324 7.84712 13.7386L2.26274 8.15951C2.16937 8.06576 2.16937 7.92376 2.26274 7.83051L7.84712 2.25089C7.94037 2.15764 8.08249 2.15764 8.17624 2.25089L10.3989 4.47151C10.5606 4.63311 10.7799 4.72388 11.0085 4.72388C11.2371 4.72388 11.4564 4.63311 11.6181 4.47151C11.6981 4.39154 11.7616 4.29658 11.8049 4.19206C11.8482 4.08754 11.8705 3.97552 11.8705 3.86239C11.8705 3.74926 11.8482 3.63723 11.8049 3.53272C11.7616 3.4282 11.6981 3.33324 11.6181 3.25326L8.68649 0.32414C8.30899 -0.0431103 7.70162 -0.0401103 7.32712 0.33389Z" fill="url(#paint0_linear_236_319)"/>
<path d="M7.32712 0.33389L0.334493 7.32064C0.245072 7.40972 0.174118 7.51557 0.125704 7.63213C0.0772902 7.7487 0.0523682 7.87367 0.0523682 7.99989C0.0523682 8.12611 0.0772902 8.25108 0.125704 8.36764C0.174118 8.48421 0.245072 8.59006 0.334493 8.67914L7.32712 15.6659C7.41632 15.7552 7.52224 15.826 7.63882 15.8743C7.7554 15.9226 7.88036 15.9475 8.00656 15.9475C8.13275 15.9475 8.25771 15.9226 8.37429 15.8743C8.49088 15.826 8.59679 15.7552 8.68599 15.6659L11.6181 12.7363C11.6981 12.6563 11.7616 12.5613 11.8049 12.4568C11.8482 12.3523 11.8705 12.2403 11.8705 12.1271C11.8705 12.014 11.8482 11.902 11.8049 11.7975C11.7616 11.693 11.6981 11.598 11.6181 11.518C11.4564 11.3564 11.2371 11.2656 11.0085 11.2656C10.7799 11.2656 10.5606 11.3564 10.3989 11.518L8.17637 13.7386C8.08262 13.8324 7.94037 13.8324 7.84712 13.7386L2.26274 8.15951C2.16937 8.06576 2.16937 7.92376 2.26274 7.83051L7.84712 2.25089C8.08012 2.05014 8.45999 1.64339 9.01849 1.54826C9.43324 1.47751 9.8867 1.6331 10.3789 2.01501C10.0499 1.68601 9.48574 1.12239 8.68649 0.32414C8.30899 -0.0431103 7.70162 -0.0401103 7.32712 0.33389Z" fill="url(#paint1_linear_236_319)"/>
<path d="M12.295 10.868C12.4568 11.0296 12.676 11.1203 12.9046 11.1203C13.1332 11.1203 13.3524 11.0296 13.5142 10.868L15.6768 8.70739C15.7662 8.61835 15.8371 8.51254 15.8855 8.39603C15.9338 8.27952 15.9588 8.15461 15.9588 8.02845C15.9588 7.90229 15.9338 7.77738 15.8855 7.66087C15.8371 7.54436 15.7662 7.43855 15.6768 7.34951L13.4952 5.17714C13.333 5.01574 13.1135 4.92526 12.8847 4.92554C12.656 4.92582 12.4366 5.01684 12.2749 5.17864C12.1948 5.25857 12.1313 5.35351 12.0879 5.45803C12.0445 5.56255 12.0222 5.6746 12.0222 5.78776C12.0222 5.90092 12.0445 6.01297 12.0879 6.11749C12.1313 6.22201 12.1948 6.31696 12.2749 6.39689L13.7487 7.86901C13.7707 7.8903 13.7883 7.91583 13.8003 7.94406C13.8123 7.97229 13.8185 8.00265 13.8185 8.03332C13.8185 8.064 13.8123 8.09436 13.8003 8.12259C13.7883 8.15082 13.7707 8.17635 13.7487 8.19764L12.2949 9.65026C12.2148 9.73015 12.1513 9.82505 12.1079 9.92953C12.0646 10.034 12.0423 10.146 12.0423 10.2591C12.0423 10.3723 12.0646 10.4843 12.1079 10.5887C12.1513 10.6932 12.2149 10.7881 12.295 10.868Z" fill="url(#paint2_linear_236_319)"/>
<path fill-rule="evenodd" clip-rule="evenodd" d="M9.9297 8.03519C9.9297 6.99319 9.08445 6.14844 8.04145 6.14844C6.99895 6.14844 6.15332 6.99319 6.15332 8.03519C6.15332 9.07669 6.99895 9.92144 8.04145 9.92144C9.08445 9.92144 9.9297 9.07669 9.9297 8.03519Z" fill="url(#paint3_linear_236_319)"/>
<defs>
<linearGradient id="paint0_linear_236_319" x1="7.39114" y1="0.0506398" x2="14.0384" y2="4.11336" gradientUnits="userSpaceOnUse">
<stop stop-color="#4285EB"/>
<stop offset="1" stop-color="#2EC7FF"/>
</linearGradient>
<linearGradient id="paint1_linear_236_319" x1="8.27748" y1="0.0506398" x2="4.99558" y2="17.0202" gradientUnits="userSpaceOnUse">
<stop stop-color="#29CDFF"/>
<stop offset="0.379" stop-color="#148EFF"/>
<stop offset="1" stop-color="#0A60FF"/>
</linearGradient>
<linearGradient id="paint2_linear_236_319" x1="14.7658" y1="4.11981" x2="10.4933" y2="10.7996" gradientUnits="userSpaceOnUse">
<stop stop-color="#FA816E"/>
<stop offset="0.415" stop-color="#F74A5C"/>
<stop offset="1" stop-color="#F51D2C"/>
</linearGradient>
<linearGradient id="paint3_linear_236_319" x1="8.72503" y1="4.80162" x2="7.30376" y2="10.4843" gradientUnits="userSpaceOnUse">
<stop stop-color="#FA8E7D"/>
<stop offset="0.513" stop-color="#F74A5C"/>
<stop offset="1" stop-color="#F51D2C"/>
</linearGradient>
</defs>
</svg>
