<svg width="16" height="16" viewBox="0 0 16 16" fill="none" xmlns="http://www.w3.org/2000/svg">
<path d="M7.99997 1.94604L4.91781 7.28442C6.10074 6.91876 7.35978 6.87517 8.56516 7.15815L9.60689 7.40399L8.62678 11.5597L7.58354 11.3138C6.30138 11.0113 5.06938 11.6849 4.54873 12.7592L3.58441 12.2926C4.32041 10.7729 6.05468 9.85264 7.83024 10.2717L8.31868 8.20032C7.4545 7.99673 6.55546 7.99122 5.68886 8.18421C4.82225 8.3772 4.01051 8.76368 3.31438 9.31473C2.61826 9.86578 2.05577 10.5671 1.66902 11.3663C1.28227 12.1655 1.08126 13.0418 1.08105 13.9296L14.9189 13.9298L7.99997 1.94604Z" fill="#42A5F5"/>
</svg>
