<svg width="16" height="16" viewBox="0 0 16 16" fill="none" xmlns="http://www.w3.org/2000/svg">
<path d="M11.3565 2H4.6435C4.5998 1.99999 4.55686 2.01143 4.51896 2.03319C4.48106 2.05494 4.44953 2.08626 4.4275 2.124L1.0735 7.874C1.05119 7.91224 1.03943 7.95572 1.03943 8C1.03943 8.04428 1.05119 8.08776 1.0735 8.126L4.4275 13.876C4.44953 13.9137 4.48106 13.9451 4.51896 13.9668C4.55686 13.9886 4.5998 14 4.6435 14H11.3565C11.4002 14 11.4431 13.9886 11.481 13.9668C11.5189 13.9451 11.5505 13.9137 11.5725 13.876L14.9265 8.126C14.9488 8.08776 14.9606 8.04428 14.9606 8C14.9606 7.95572 14.9488 7.91224 14.9265 7.874L11.5725 2.124C11.5505 2.08626 11.5189 2.05494 11.481 2.03319C11.4431 2.01143 11.4002 1.99999 11.3565 2ZM7.888 12.444L4.138 10.569C4.09653 10.5482 4.06166 10.5163 4.03728 10.4768C4.01291 10.4374 4 10.3919 4 10.3455V5.6545C4 5.60811 4.01291 5.56264 4.03728 5.52317C4.06166 5.48369 4.09653 5.45178 4.138 5.431L7.888 3.556C7.92277 3.53858 7.96112 3.52951 8 3.52951C8.03889 3.52951 8.07724 3.53858 8.112 3.556L11.862 5.431C11.9035 5.45178 11.9383 5.48369 11.9627 5.52317C11.9871 5.56264 12 5.60811 12 5.6545V10.3455C12 10.3919 11.9871 10.4374 11.9627 10.4768C11.9383 10.5163 11.9035 10.5482 11.862 10.569L8.112 12.444C8.07724 12.4614 8.03889 12.4705 8 12.4705C7.96112 12.4705 7.92277 12.4614 7.888 12.444Z" fill="#3F51B5"/>
<path d="M11 9.72053V6.27953C11 6.23314 10.9871 6.18767 10.9627 6.1482C10.9383 6.10873 10.9035 6.07682 10.862 6.05603L8.112 4.68103C8.07724 4.66361 8.03889 4.65454 8 4.65454C7.96111 4.65454 7.92277 4.66361 7.888 4.68103L5.138 6.05603C5.09653 6.07682 5.06165 6.10873 5.03728 6.1482C5.01291 6.18767 5 6.23314 5 6.27953V9.72053C5 9.76692 5.01291 9.8124 5.03728 9.85187C5.06165 9.89134 5.09653 9.92325 5.138 9.94403L7.888 11.319C7.92277 11.3365 7.96111 11.3455 8 11.3455C8.03889 11.3455 8.07724 11.3365 8.112 11.319L10.862 9.94403C10.9035 9.92325 10.9383 9.89134 10.9627 9.85187C10.9871 9.8124 11 9.76692 11 9.72053Z" fill="#7986CB"/>
</svg>
