<svg width="16" height="16" viewBox="0 0 16 16" fill="none" xmlns="http://www.w3.org/2000/svg">
<path d="M12.25 0H3.75C1.67893 0 0 1.67893 0 3.75V12.25C0 14.3211 1.67893 16 3.75 16H12.25C14.3211 16 16 14.3211 16 12.25V3.75C16 1.67893 14.3211 0 12.25 0Z" fill="#F03C2E"/>
<mask id="mask0_168_111" style="mask-type:luminance" maskUnits="userSpaceOnUse" x="1" y="1" width="14" height="14">
<path d="M1.75 1.75H14.25V14.25H1.75V1.75Z" fill="white"/>
</mask>
<g mask="url(#mask0_168_111)">
<path d="M14.0141 7.44334L8.55667 1.98591C8.44415 1.87326 8.30073 1.79654 8.14458 1.76547C7.98842 1.73439 7.82656 1.75036 7.67948 1.81134C7.58186 1.85186 7.49316 1.91117 7.41842 1.98591L6.28561 3.11872L7.72311 4.55622C8.05748 4.43903 8.4403 4.51909 8.70667 4.78553C8.8335 4.91257 8.92203 5.07271 8.96216 5.24768C9.00229 5.42264 8.9924 5.60536 8.93361 5.77497L10.3192 7.16053C10.6544 7.04491 11.041 7.11947 11.3086 7.38784C11.4426 7.52181 11.5339 7.69253 11.5709 7.8784C11.6078 8.06427 11.5888 8.25693 11.5162 8.43197C11.4188 8.66665 11.2323 8.85309 10.9976 8.95028C10.7628 9.04747 10.4991 9.04748 10.2644 8.95028C10.1481 8.90209 10.0425 8.83153 9.95355 8.74253C9.6723 8.46128 9.6028 8.04722 9.74498 7.70072L8.4528 6.40853V9.80897C8.5466 9.85537 8.63232 9.91657 8.70667 9.99022C8.88631 10.1699 8.98724 10.4135 8.98724 10.6676C8.98724 10.9216 8.88631 11.1653 8.70667 11.3449C8.52703 11.5245 8.28338 11.6255 8.02933 11.6255C7.77527 11.6255 7.53163 11.5245 7.35198 11.3449C7.21792 11.211 7.1266 11.0403 7.0896 10.8545C7.05259 10.6686 7.07156 10.476 7.14411 10.3009C7.19229 10.1847 7.26293 10.0791 7.35198 9.99022C7.44455 9.89803 7.5473 9.82809 7.66567 9.78122V6.34916C7.5482 6.30116 7.44154 6.23012 7.35198 6.14022C7.21749 6.00587 7.12605 5.83451 7.08931 5.64798C7.05258 5.46146 7.07222 5.26822 7.14573 5.09291L5.7278 3.67584L1.98561 7.41409C1.87295 7.52667 1.79622 7.67014 1.76513 7.82634C1.73403 7.98254 1.74997 8.14445 1.81092 8.29159C1.85146 8.38927 1.91081 8.47802 1.98561 8.55278L7.44342 14.0098C7.51816 14.0845 7.60686 14.1438 7.70448 14.1843C7.90176 14.2659 8.12333 14.2659 8.32061 14.1843C8.41823 14.1438 8.50693 14.0845 8.58167 14.0098L14.0141 8.58597C14.0889 8.51123 14.1483 8.42248 14.1887 8.32479C14.2292 8.22711 14.2501 8.1224 14.2501 8.01666C14.2501 7.9109 14.2293 7.80618 14.1888 7.70849C14.1483 7.61079 14.0889 7.52203 14.0141 7.44728" fill="white"/>
</g>
</svg>
