<svg width="14" height="16" viewBox="0 0 14 16" fill="none" xmlns="http://www.w3.org/2000/svg">
<path d="M2.19681 6.98829C1.723 7.20782 0.46912 8.19605 0.22762 8.48884C-0.0231767 8.78164 -0.0974971 8.32415 0.162542 7.56472C0.366855 6.95166 0.887097 6.11901 1.76018 5.40537C2.27096 4.99362 3.3949 4.39887 4.08221 4.05118C4.22156 3.97792 6.02351 3.2277 7.63039 2.85253C7.76974 2.8159 7.46321 3.08127 7.41673 3.2277C7.17523 3.92308 2.35458 6.90592 2.35458 6.90592L2.19681 6.98829ZM8.98648 15.3786C9.07004 15.8728 8.99578 15.9093 8.4757 15.9734C7.95551 16.0375 7.57467 15.8453 7.43538 15.7172C7.29598 15.589 7.2682 15.3055 7.40749 15.0493C7.49116 14.8846 7.57472 14.8297 7.62121 14.6284C7.66758 14.4363 7.70477 14.3905 7.7419 14.3173C7.77903 14.2532 7.78839 14.1891 7.79763 13.7408C7.80693 13.2925 7.79763 12.4507 7.84411 12.0939C7.8906 11.7279 9.49743 12.2585 9.49743 12.2585C9.49743 12.2585 9.11658 13.1918 9.01443 13.4206C8.91227 13.6494 8.92157 14.0885 8.92157 14.18C8.92157 14.2715 8.88438 14.4545 8.85649 14.4636C8.8286 14.4728 8.94946 14.7107 8.89368 14.848C8.85649 14.9761 8.97724 15.3055 8.98648 15.3786ZM9.59953 1.38856C9.54375 1.04087 9.59953 0.354538 9.67385 0.244855C9.90605 -0.0663105 11.1321 -0.10289 11.3922 0.263117C11.5036 0.427804 11.4943 0.812073 11.4758 1.05913C11.4573 1.30619 11.3922 1.83688 11.3829 2.01078C11.3736 2.13889 10.0268 2.3401 9.72957 1.99246C9.64596 1.90099 9.59953 1.38856 9.59953 1.38856ZM12.3303 14.4911C12.8969 14.8937 13.3334 14.9669 13.6214 15.1133C13.9093 15.2598 13.835 15.5434 13.352 15.6257C12.9619 15.6989 12.3489 15.5525 11.9402 15.5525C11.5315 15.5525 10.6213 15.5983 10.3798 15.4336C10.1011 15.2414 10.2218 14.8846 10.2218 14.8846C10.2962 14.6833 10.4819 14.2349 10.4261 13.8689C10.3704 13.503 10.2961 13.3017 10.1568 12.9631C10.0174 12.6246 9.91535 11.792 10.0454 11.7462C10.1754 11.7004 10.1383 11.7462 10.3054 11.7828C10.4726 11.8193 10.6584 11.8743 11.0206 11.8743C11.3829 11.8743 11.7823 11.8193 11.9216 11.7919C12.061 11.7645 12.1724 11.7369 12.1259 12.0206C12.0795 12.3043 11.9402 12.835 11.9309 13.2468C11.9216 13.6585 11.9216 14.1343 11.9495 14.2166C11.9773 14.299 12.1817 14.3905 12.3303 14.4911" fill="black"/>
<path d="M10.3426 2.30355C9.32094 3.17283 7.34245 3.41062 4.40737 4.52696C3.65504 4.81059 1.64877 5.6615 1.16577 6.5491C2.79119 5.62498 3.39494 6.89679 3.52499 8.20518C3.64569 9.43125 4.26803 10.0718 5.86562 10.0351C7.50969 9.99858 8.01122 10.941 8.46633 12.0481C9.34872 7.8117 10.7606 6.98826 11.6708 6.26546C13.6028 4.71906 11.225 1.99244 10.3426 2.30355Z" fill="#88CE02"/>
<path d="M10.3427 2.30357C7.89053 3.14533 5.46629 3.35575 2.61477 5.08504C1.93675 5.49679 0.506349 6.43007 0.227661 8.21431C1.26793 7.07971 3.67357 5.65237 6.618 4.74656C8.10414 4.28903 9.19089 3.98713 10.5098 3.4838C10.417 2.89821 10.417 2.66947 10.3427 2.30347" fill="#88CE02"/>
<path d="M13.4727 7.31761C13.4727 7.31761 13.2962 7.91236 12.9433 8.10458C12.9433 8.10458 12.6832 8.19605 12.1631 7.91242C12.0145 7.8301 11.903 7.54646 11.9122 7.45488C11.9215 7.2353 12.0609 7.13467 12.0609 7.13467C12.0609 7.13467 12.2095 6.88761 12.386 6.89677C12.5625 6.90592 12.8597 6.93335 12.9526 6.85098C13.0361 6.7595 13.4913 7.01566 13.4727 7.31761ZM9.68308 1.56241C9.68308 1.56241 9.64594 2.02905 9.58092 2.32184C9.57162 2.37679 9.29299 2.40416 9.08862 2.48653C9.47871 3.5845 11.8287 3.57534 12.1353 3.03549C11.9866 2.93491 11.6894 2.77933 11.5501 2.72443C11.4107 2.66948 11.42 2.67864 11.4107 2.42248C11.4014 2.16632 11.3828 1.69052 11.3642 1.56241C11.3456 1.4343 9.90598 1.43425 9.68308 1.56241Z" fill="black"/>
<path d="M9.77598 1.56245C9.77598 1.56245 9.77598 1.82777 9.74809 2.08393C9.7389 2.20294 9.7296 2.2761 9.71101 2.36757C9.70171 2.42252 10.0268 2.64205 10.1197 3.12701C10.5656 4.10602 11.5966 3.62112 12.0238 3.15448C11.8752 3.05379 11.6337 2.91658 11.3551 2.80679C11.2157 2.75184 11.2807 2.63294 11.2715 2.37678C11.2622 2.12057 11.225 1.7454 11.2064 1.60814C11.1879 1.47087 9.99894 1.43429 9.77598 1.56245Z" fill="#EFEFEF"/>
<path d="M9.68313 1.56243C9.68313 1.56243 9.67383 1.72712 9.646 1.91928C9.76669 2.03817 9.92463 2.20291 10.0454 2.30355C10.129 2.37681 10.3333 2.36766 10.5191 2.36766C10.6863 2.36766 10.8349 2.38592 10.8999 2.34934C11.0486 2.27607 11.2622 2.09312 11.3829 1.95586C11.3737 1.79117 11.3644 1.63564 11.3551 1.56243C11.3457 1.43427 9.90604 1.43427 9.68313 1.56243Z" fill="black"/>
<path d="M10.5283 2.25768C10.4168 2.25768 10.2868 2.24852 10.1846 2.2302C10.1381 2.22105 10.0918 2.19362 10.0546 2.17531C9.98956 2.12952 9.92453 2.07467 9.85032 2.01973C9.70163 1.90993 9.69238 1.84588 9.69238 1.81851C9.75741 1.24203 9.67379 0.757126 9.67379 0.757126C9.67379 0.757126 9.60871 0.510015 9.96172 0.445961C10.3147 0.381907 10.5283 0.372803 10.5283 0.372803C10.5283 0.372803 10.7512 0.372803 11.0948 0.445961C11.4479 0.510069 11.3828 0.757126 11.3828 0.757126C11.3828 0.757126 11.2992 1.24203 11.3642 1.81851C11.3642 1.84588 11.355 1.90993 11.2064 2.01973C11.0763 2.11125 10.9741 2.21189 10.872 2.2302C10.7698 2.24852 10.6397 2.25768 10.5283 2.25768Z" fill="black"/>
<path d="M10.5283 0.13501C9.9153 0.13501 9.79455 0.299697 9.61807 0.4827C9.58094 0.528437 9.60878 0.802915 9.67385 1.38856H9.75742C9.75742 1.38856 9.70164 1.22382 9.71093 1.03166C9.72023 0.839548 9.75742 0.848707 9.72953 0.802915C9.69234 0.747966 9.61807 0.656491 9.78531 0.565016C9.95243 0.473542 10.2125 0.638229 10.5283 0.647387C10.8441 0.638229 11.1135 0.473542 11.2807 0.565016C11.4479 0.656491 11.3735 0.74802 11.3365 0.802915C11.2993 0.857865 11.3457 0.839548 11.355 1.03166C11.3643 1.22376 11.3085 1.38856 11.3085 1.38856H11.3921C11.4479 0.802969 11.485 0.546754 11.4572 0.500963C11.2992 0.299697 11.1413 0.144114 10.5283 0.13501ZM13.4727 7.34508C13.4727 7.34508 13.2962 7.9032 12.9526 8.09536C12.8783 8.05873 12.8876 8.00388 12.8225 7.92151C12.8039 7.89409 12.7389 7.87572 12.7111 7.8483C12.6832 7.82083 12.6925 7.77509 12.646 7.73851C12.6089 7.70188 12.581 7.72935 12.5439 7.70188C12.5068 7.66535 12.4974 7.61956 12.4696 7.59219C12.451 7.57388 12.3767 7.56472 12.3581 7.5464C12.3117 7.50061 11.903 7.4183 11.9216 7.32677C11.9587 7.1895 12.0331 7.08887 12.0331 7.08887C12.0331 7.08887 12.2095 6.83271 12.386 6.84181C12.5624 6.85097 12.7296 6.8876 12.8225 6.80523C12.9248 6.7137 13.5007 7.05229 13.4727 7.34503" fill="black"/>
<path d="M12.2653 3.30088C12.2653 3.30088 12.8504 3.16361 13.2498 3.53878C13.6492 3.9231 13.6213 4.39884 13.5006 4.69164C13.6028 4.81059 13.7885 5.13996 13.6492 5.53344C14.2623 6.04577 13.9929 6.83273 13.4449 7.35426C13.4449 7.35426 13.3148 6.87847 12.7947 6.85099C12.8133 6.66804 12.3117 6.52162 12.5439 6.04582C12.1909 5.96345 12.2002 5.72555 12.1445 5.43276C12.098 5.13996 12.2653 3.30088 12.2653 3.30088Z" fill="black"/>
<path d="M12.0517 3.55695C12.0517 3.55695 12.7297 3.21841 13.1292 3.60274C13.5285 3.98701 13.417 4.40785 13.2963 4.70065C13.3985 4.81955 13.64 5.15818 13.4913 5.56072C13.4635 5.65225 13.2591 5.65225 13.1105 5.89014C13.482 5.67961 13.7143 5.73456 13.7979 5.99988C13.9279 6.41163 13.6399 6.90569 13.3892 7.18022C13.3892 7.17106 13.3799 7.1619 13.3799 7.15274C13.3427 7.29006 13.2963 7.55533 13.0176 7.84812C12.8783 7.99455 12.7668 7.97629 12.609 7.93965C12.4232 7.89386 12.3582 7.81149 12.0981 7.67433C11.9495 7.59196 12.0331 7.49128 12.0331 7.40896C12.0331 7.39064 12.0516 7.36317 12.0795 7.32664C12.0981 7.28085 12.1539 7.20769 12.2374 7.12532C12.2374 7.12532 12.3582 6.96064 12.5347 6.96974C12.7112 6.97884 12.8969 6.94237 12.9434 6.89658C12.9434 6.57637 12.5719 6.56715 12.7019 6.0182C12.7112 5.99072 12.7577 5.94493 12.9062 5.92667C12.6833 5.88088 12.5811 5.87172 12.4232 5.7254C12.3117 5.62477 12.2282 5.49666 12.2003 5.33198C12.1446 5.04834 12.0517 3.55695 12.0517 3.55695Z" fill="#EFEFEF"/>
<path d="M10.0918 2.98068C10.036 2.90741 9.74816 2.54146 9.20014 2.39509C9.0422 2.3493 8.94005 2.47741 8.78222 2.56894C8.73574 2.54146 8.53137 2.44999 8.41991 2.51399C8.30846 2.57799 8.2342 2.64209 8.12269 2.68783C8.06691 2.66036 7.91838 2.66036 7.79763 2.70615C7.67688 2.74273 7.4911 2.82504 7.31463 3.06294C7.20317 3.45642 9.2837 3.16358 9.2837 3.16358L10.0918 2.98068Z" fill="black"/>
<path d="M10.1104 2.98054C9.81316 2.87985 9.85964 2.54132 9.20016 2.48642C9.07012 2.47727 8.9865 2.5779 8.89364 2.64195C8.94012 2.68774 8.9865 2.7609 9.01439 2.83406C8.93077 2.74264 8.78219 2.62364 8.63349 2.59616C8.4942 2.56879 8.40129 2.66943 8.2527 2.74264C8.28054 2.77001 8.30843 2.8158 8.34556 2.87075C8.21546 2.78838 8.12266 2.76096 7.94618 2.82496C7.82543 2.86154 7.59323 2.96222 7.41675 3.20928C7.3053 3.60271 9.29297 3.16349 9.29297 3.16349L10.1104 2.98054Z" fill="#88CE02"/>
<path d="M11.8566 3.1269C11.8566 3.1269 11.8566 3.02627 11.8473 2.93479C11.8473 2.91648 11.773 2.87068 11.773 2.85242L11.7544 2.83411C11.7544 2.83411 11.903 2.75179 12.0145 2.79753C12.1352 2.83416 12.2002 2.98969 12.2002 2.98969C12.4139 2.91653 12.4324 2.99885 12.5346 3.10864C12.7576 3.06285 12.7854 3.14522 12.9248 3.34654C12.9248 3.34654 12.7576 3.31906 12.4325 3.37396C12.1166 3.41964 11.8566 3.11774 11.8566 3.1269Z" fill="black"/>
<path d="M11.8195 3.08132C11.8195 3.08132 11.8752 3.03553 11.8566 3.02637C11.9588 2.97142 12.0981 2.90748 12.1631 3.08132C12.3767 3.00806 12.4046 3.1088 12.5068 3.21859C12.7668 3.09964 12.7854 3.24596 12.804 3.31006C12.7204 3.31006 12.5997 3.31922 12.4325 3.33748C12.1167 3.38328 11.8102 3.07211 11.8195 3.08132Z" fill="#88CE02"/>
<path d="M8.66147 2.85254C8.66147 2.85254 9.1909 3.03549 9.63676 3.00801C10.0826 2.97149 10.8443 2.93486 11.2529 3.17275C11.2529 3.17275 11.6709 3.02633 12.061 3.12696C12.4511 3.2276 13.1663 3.8864 12.9527 4.58178C12.9341 4.62757 12.8134 4.70073 12.6741 4.74652C12.6741 4.74652 12.7484 5.05763 12.6183 5.31379C12.4883 5.56085 12.2003 6.03665 12.1911 6.69545C12.1818 6.80524 12.1632 7.03398 12.1446 7.14372C11.4201 7.11635 10.3055 6.85092 9.20954 6.86929C9.21879 6.75034 9.22808 6.67713 9.23744 6.55818H9.26522C9.20943 6.25623 9.1909 6.10065 9.13517 5.87196C8.78222 5.65238 8.41061 5.39616 8.0949 4.91121C7.78838 4.42625 8.66147 2.85254 8.66147 2.85254ZM12.2468 7.79341C12.2468 7.79341 12.8226 9.82472 12.1446 10.6757C12.1446 10.6757 12.2468 11.0691 12.0146 11.49C11.9774 11.673 11.9309 11.8377 11.9031 12.0206C11.7824 12.7801 11.578 13.1003 11.5223 14.3172L10.965 14.3081C10.965 14.3081 10.8999 13.4297 10.7049 12.9631C10.5935 12.6978 10.1568 12.3409 10.1755 11.9841C10.1941 11.7096 10.2498 11.4808 10.7235 11.1148C10.7606 10.5841 10.2219 10.0809 10.3055 8.10453L12.2468 7.79341Z" fill="black"/>
<path d="M12.0796 7.71104C12.2282 8.64432 12.5719 10.0259 11.9495 10.703C11.9774 10.8312 11.996 11.0142 11.9588 11.2245C11.9402 11.3343 11.9031 11.4533 11.8567 11.5814C11.7638 11.801 11.7266 12.1212 11.6987 12.3133C11.578 13.0728 11.578 13.1095 11.5223 14.3264L10.9649 14.3172C10.9649 14.3172 10.8999 13.4388 10.7049 12.9722C10.5935 12.7069 10.3612 12.4781 10.3427 12.1213C10.3241 11.8468 10.5191 11.2978 10.9836 11.3161C10.9557 10.209 10.4355 10.4286 10.2962 8.12279L12.0796 7.71104ZM8.66146 2.85254C8.66146 2.85254 8.86582 2.91659 9.08873 2.93486C9.31164 2.95317 9.55319 2.93486 9.76675 2.9257C10.2126 2.88912 10.8442 2.84338 11.2622 3.08128C11.2622 3.08128 11.4944 3.00801 11.7452 3.02633C11.8567 3.03549 11.9681 3.12696 12.0982 3.1636C12.5069 3.26423 12.8969 3.93213 12.7204 4.53609C12.7018 4.58189 12.5718 4.53609 12.4232 4.58189C12.451 4.70994 12.4697 5.00273 12.321 5.31385C12.1632 5.62496 11.9588 6.02754 11.9959 6.79614C11.0207 6.75034 10.5841 6.68634 9.61811 6.64061C9.53449 6.30202 9.47876 5.96343 9.46946 5.78964C9.59957 5.72554 9.67378 5.67075 9.77604 5.5609C9.49741 5.60669 9.3859 5.58838 9.21867 5.49679C9.05149 5.40532 8.75426 5.11253 8.60562 4.92042C8.58708 4.9021 8.48498 5.204 8.25278 5.21321C8.16911 5.09426 8.52206 4.75568 8.45703 4.62762C8.22489 4.16093 8.66146 2.85254 8.66146 2.85254Z" fill="#EFEFEF"/>
<path d="M12.1538 6.95172C12.1538 6.95172 12.1724 7.2811 12.1724 7.36341C12.1724 7.45494 12.2468 7.72937 12.256 7.85753C12.1538 8.03137 11.708 8.4248 10.8999 8.57123C10.1011 8.73591 9.04224 7.50068 9.04224 7.50068C9.07013 7.38173 9.16299 7.03404 9.22801 6.85104C9.23731 6.83272 9.2559 6.78698 9.2559 6.76872C9.33952 6.64977 12.1538 6.95172 12.1538 6.95172Z" fill="black"/>
<path d="M11.9495 6.97901C11.9495 7.20769 11.9866 7.37244 12.0146 7.51881C12.061 7.78418 12.1352 7.95802 12.1352 8.13187C12.1352 8.66251 11.4293 8.57103 10.8348 8.58935C10.036 8.75409 9.35803 7.51886 9.35803 7.51886C9.4137 7.30838 9.45089 7.07054 9.53445 6.86916C9.54375 6.75943 9.56235 6.62216 9.57164 6.55811C10.7048 6.55811 11.5036 6.62221 11.968 6.66784C11.9866 6.76853 11.968 6.94237 11.9495 6.97895" fill="#EFEFEF"/>
<path d="M11.0579 8.15935C11.0579 8.15935 10.5656 7.07965 9.08867 7.39997C8.73577 8.37893 8.26201 9.50443 8.56859 10.7213C8.26201 11.1331 7.90906 11.3619 7.90906 12.1213C7.90906 12.8806 7.94625 13.0088 7.94625 13.0088L9.03294 13.0638C9.03294 13.0638 9.38589 12.6154 9.52518 12.1305C9.56237 11.9932 9.59956 11.7462 9.57167 11.4625C9.6088 11.4076 9.76668 11.2796 9.78533 11.0325C9.78533 11.0325 10.3147 10.758 10.6213 10.0901C10.9093 9.48606 10.8349 8.96452 11.0578 8.1593" fill="black"/>
<path d="M11.0578 8.15939C11.0299 8.05876 10.6584 7.07059 9.28374 7.36333C8.47562 9.4861 8.77285 10.3645 8.8936 10.7488C8.34552 11.435 8.09477 11.5814 8.20628 12.9722H8.93078C9.26514 12.4507 9.33946 12.2585 9.358 11.5722C9.358 11.5448 9.2559 11.6272 9.18153 11.7187C9.23731 11.435 9.39519 11.3801 9.51594 11.2063C9.57167 11.133 9.6181 11.0233 9.6181 10.8769C10.2683 10.4469 10.5098 9.907 10.6491 9.34883C10.7606 8.96457 10.8906 8.33324 11.0577 8.15934" fill="#EFEFEF"/>
<path d="M8.76353 6.68628C8.76353 6.68628 9.01432 6.69544 9.23728 6.76865C9.45095 6.84181 9.45095 6.88755 9.53451 6.97907C9.61813 7.07066 9.82244 7.20781 9.78531 7.34508C9.76671 7.41829 9.72028 7.43656 9.65526 7.50061C9.62737 7.52808 9.423 7.74767 9.37663 7.77509C9.34874 7.7934 9.31155 7.82088 9.28371 7.8392L9.14442 7.93067C9.05151 7.97646 8.98649 8.00388 8.88433 7.99472C8.88433 7.99472 8.65213 7.98557 8.50349 7.83004C8.50349 7.83004 8.48489 7.75677 8.52208 7.72025C8.52208 7.72025 8.32701 7.5555 8.27128 7.44571C8.2155 7.33598 8.2155 7.18045 8.25269 7.09808C8.27128 7.01565 8.63348 6.78691 8.76353 6.68628ZM8.99578 15.5891L8.96789 15.8179C8.96789 15.8179 8.88433 15.9185 8.26204 15.9093C7.6304 15.9002 7.46322 15.7081 7.40749 15.6074L7.37036 15.3695C7.37036 15.3695 7.49111 15.1956 7.519 15.1956C7.72331 15.214 8.41998 15.4884 8.90298 15.5616C8.9493 15.5616 8.9586 15.5799 8.99578 15.5891ZM10.3426 15.1224C10.3426 15.2231 10.3333 15.2231 10.3333 15.3237C10.4447 15.4061 10.7234 15.4519 11.2528 15.4426C12.0237 15.4243 12.7389 15.6714 13.612 15.525L13.6213 15.3603L13.5377 15.3512L10.4447 15.1041L10.3426 15.1224Z" fill="black"/>
<path d="M11.0206 15.4428H11.2528C11.7545 15.4245 12.2282 15.5342 12.739 15.5617C13.0084 15.5526 13.3427 15.4885 13.3149 15.2963L10.677 15.0767C10.5191 15.2506 10.6398 15.397 11.0206 15.4428ZM7.99264 11.5907C8.07626 11.6456 8.64288 11.975 9.56239 11.9292C9.5438 12.103 9.5531 12.4416 9.14442 13.0363C8.94005 13.3291 8.76352 13.8415 8.72644 14.4912C8.73574 14.6376 8.8193 14.7657 8.70785 14.9578C8.74503 15.0767 8.89362 15.3147 8.96794 15.461C9.04221 15.6075 9.07939 15.7721 8.58704 15.7813C8.0855 15.7905 7.27738 15.7355 7.38889 15.3513C7.44467 15.15 7.60256 14.9396 7.62115 14.8572C7.63974 14.7748 7.63974 14.5278 7.79757 14.3631C7.93692 13.9056 7.89049 13.4664 7.86265 13.0547C7.81617 12.6246 7.80687 11.9384 7.99264 11.5907M8.85649 4.13357C9.51596 3.26429 8.95864 2.56897 7.89984 2.77934C7.47251 2.86171 7.04529 3.15456 7.0174 3.6852C6.87806 3.70351 6.56229 3.72178 6.40435 4.2891C6.28366 4.72827 6.21863 4.81058 6.00497 5.03017C5.86563 5.18575 6.01427 5.50596 6.11642 5.73481C6.46008 6.52167 7.51894 6.59483 8.23414 7.18957C8.47564 7.12552 8.72644 6.8602 8.80071 6.68641C8.19696 5.98176 8.327 5.70734 8.0855 5.34133C8.3456 5.24975 8.94005 4.89306 8.85649 4.13357Z" fill="black"/>
<path d="M8.72648 4.07853C8.76356 4.02358 8.82864 3.90468 8.85653 3.85889C8.86582 3.84973 8.96798 4.02358 8.97728 4.01447C9.22802 3.61183 9.29304 3.02624 9.00511 2.97135C8.94004 2.96219 8.81934 2.93477 8.71718 2.89808C8.53141 2.83408 8.36423 2.83408 8.06695 2.88898C7.65832 2.96219 7.24964 3.25498 7.24964 3.67589C7.24964 3.70336 7.53752 3.78568 7.62114 4.12426C7.48179 3.93205 7.24029 3.72162 6.95231 3.90463C6.64584 4.09673 6.80372 4.53595 6.39504 4.99338C6.2557 5.14896 6.27429 5.33197 6.42293 5.69797C6.66438 6.2744 7.80686 6.58552 8.4292 7.13447C8.57779 7.07042 8.67994 6.92405 8.75426 6.81426C8.33629 6.3842 8.16911 5.98161 8.04836 5.68881C7.89977 5.35028 7.73254 5.15817 7.40742 4.90185C7.57465 4.96596 7.70475 5.02996 7.77897 5.08486C7.86253 5.1398 7.98328 5.14896 8.09479 5.11233C8.49428 4.97517 8.70789 4.42616 8.72643 4.07853" fill="#EFEFEF"/>
<path d="M12.7669 4.22489C12.739 4.57258 12.479 4.39874 12.3397 4.33468C12.061 4.21573 11.7823 4.13342 11.4572 4.13342C11.1321 4.13342 10.7141 4.16089 10.3519 4.25237C9.8504 4.38958 9.7017 4.38048 9.4788 4.27063C9.25595 4.15168 8.86586 3.85889 8.86586 3.85889C8.86586 3.85889 8.85656 3.95042 8.94942 4.06936C9.07012 4.21574 9.33956 4.39874 9.70176 4.51763C9.87823 4.57258 10.0176 4.53595 10.1755 4.49937C11.0022 4.29811 11.8752 4.26147 12.609 4.70064C12.6462 4.71895 12.7762 4.664 12.832 4.58169C12.9062 4.46279 12.7669 4.22489 12.7669 4.22489Z" fill="black"/>
<path d="M8.54065 7.71094C8.61497 7.75673 8.70783 7.7842 8.80999 7.86652C8.80999 7.86652 8.72642 7.86652 8.68929 7.82994C8.64281 7.80247 8.54995 7.72015 8.54065 7.71094Z" fill="#001423"/>
<path d="M11.2249 0.455303C11.1971 0.372987 10.9927 0.226562 10.519 0.226562C10.0081 0.226562 9.85951 0.382091 9.85032 0.464461C9.85032 0.491936 9.81313 0.784731 9.80383 0.903626C9.80383 0.903626 9.80383 1.05005 9.81313 1.26963C9.82243 1.416 9.85956 1.49837 9.8781 1.69054C9.89669 1.89175 9.95247 2.01991 10.0546 2.1846C10.1011 2.21202 10.1382 2.23955 10.1846 2.2487C10.3704 2.28523 10.6955 2.29439 10.872 2.2487C10.9741 2.22123 11.1042 2.04738 11.132 1.8918C11.1692 1.69969 11.2063 1.56243 11.2156 1.44348C11.2342 1.32458 11.2435 1.05921 11.2528 0.985997C11.2807 0.784731 11.2342 0.47362 11.2249 0.455357" fill="#EFEFEF"/>
<path d="M10.2496 11.7644C10.2496 11.7644 10.742 11.9748 11.9587 11.7918C11.9587 11.7918 11.6151 13.4937 11.773 14.3446C11.773 14.3446 11.9309 14.5642 13.1012 14.9851C13.1012 14.9851 13.6214 15.1132 13.6028 15.3694C13.6028 15.3694 13.6214 15.4244 12.9898 15.406C12.3582 15.3877 11.7637 15.2779 11.3458 15.2779C10.9278 15.2779 10.4819 15.2962 10.4076 15.1773C10.324 15.0675 10.4262 14.7838 10.5469 14.6191C10.6771 14.4453 10.6398 14.3171 10.6306 14.0061C10.6026 13.1917 9.97102 12.35 10.2496 11.7644Z" fill="black"/>
<path d="M10.1475 11.92C10.0825 12.0115 10.1568 12.3592 10.2497 12.6977C10.3426 13.0362 10.5469 13.2375 10.5934 13.7957C10.6398 14.3446 10.6491 14.4179 10.4912 14.7381C10.3333 15.0583 10.2868 15.3512 10.8348 15.3603C11.3828 15.3695 11.6801 15.3512 12.2374 15.4335C12.7947 15.5158 12.9898 15.5433 13.2963 15.4976C13.6028 15.4518 13.6678 15.3511 13.5378 15.2597C13.4077 15.1681 12.869 15.0675 12.6368 14.8845C12.4138 14.7198 11.7823 14.4453 11.773 14.3721C11.7451 14.125 11.7358 13.2284 11.7823 12.9356C11.8287 12.6427 11.8937 12.2219 11.9123 12.1121C11.9309 12.0023 12.0238 11.8925 11.8658 11.9291C11.708 11.9656 11.1135 12.048 10.6677 12.0206C10.2219 11.9931 10.1755 11.8925 10.1475 11.92Z" fill="#88CE02"/>
<path opacity="0.3" d="M10.4633 14.7474C10.6212 14.8205 10.8535 14.8755 11.0299 14.8755C11.0299 14.8755 10.9648 15.1774 11.0671 15.3604C11.1692 15.5434 10.324 15.4336 10.324 15.4336L10.2868 14.784L10.4633 14.7474ZM12.9248 15.5342C13.0733 15.4884 13.1756 15.3238 13.0548 15.1683C12.9248 15.0127 12.8133 14.9853 12.9804 14.9761C13.1477 14.967 13.7607 15.333 13.7607 15.333L13.4448 15.6166L12.9248 15.5342ZM10.1196 12.2769C10.3333 12.3501 10.6583 12.3684 10.937 12.3592C11.2157 12.3501 11.6336 12.3134 11.903 12.222C12.1724 12.1305 12.0609 12.3226 12.0609 12.3226L11.9123 12.4599C11.9123 12.4599 11.5594 12.5971 10.9835 12.588C10.3054 12.5789 10.1011 12.5056 10.1011 12.5056L10.1196 12.2769ZM10.1382 12.7344C10.3519 12.8077 10.6769 12.8259 10.9556 12.8168C11.2342 12.8076 11.6058 12.8076 11.8751 12.707C11.9866 12.6703 11.9216 12.8259 11.9216 12.8259L11.8751 12.9082C11.8751 12.9082 11.5129 13.0363 10.9463 13.0271C10.2683 13.018 10.1475 12.9631 10.1475 12.9631L10.1382 12.7344Z" fill="black"/>
<path d="M9.52515 6.32031C9.52515 6.38442 10.2496 6.74116 10.649 6.81437C11.0485 6.88759 11.8844 6.81437 12.0144 6.78695L11.9958 6.91506C11.9958 6.91506 11.002 7.06148 10.2403 6.86016C9.47872 6.65884 9.56233 6.61311 9.56233 6.61311L9.52515 6.32031Z" fill="black"/>
<path d="M7.97403 14.125C8.08548 14.18 8.48492 14.2806 8.74496 14.2257C8.78209 14.2165 8.74496 13.5943 8.84717 13.3107C8.99575 12.9172 9.23725 12.597 9.34865 11.9016C8.95857 11.865 8.51275 11.7644 8.2805 11.6912C7.98332 12.5879 8.08554 13.3565 7.97403 14.125ZM8.59643 14.7015C8.66145 14.7198 8.70782 14.793 8.72647 14.7473C8.76355 14.6648 8.6614 14.5094 8.6521 14.3996V14.3904C8.56854 14.3173 8.00197 14.3081 8.03911 14.3446C7.97408 14.4636 7.87193 14.4453 7.83479 14.6832C7.81625 14.8021 7.96489 14.7015 8.10413 14.6924C7.85339 14.857 7.56546 15.0675 7.51897 15.2505C7.46325 15.5067 7.55616 15.5799 7.83479 15.7172C8.07635 15.7721 8.36422 15.7812 8.58713 15.7721C8.83793 15.7263 8.88441 15.6074 8.81009 15.4427C8.69853 15.1956 8.62426 14.8754 8.59643 14.7015Z" fill="#EFEFEF"/>
<path d="M8.69865 2.81592C9.00512 2.98976 9.43245 2.94403 9.59027 2.93487C9.62746 2.93487 9.99901 2.87081 10.0175 2.87992C10.0547 2.88908 10.0547 2.91655 10.0547 2.91655C10.0547 2.91655 9.91539 2.98971 9.59957 3.00803C9.30234 3.02629 8.94939 3.00803 8.75437 2.91655C8.52212 2.81592 8.69865 2.81592 8.69865 2.81592ZM11.8567 2.98976C11.9124 3.02634 12.2747 3.16361 12.4325 3.32829C12.5719 3.47472 12.4976 3.46556 12.4697 3.42898C12.4325 3.38319 12.1446 3.19103 12.0332 3.14535C11.9217 3.09955 11.7823 3.01724 11.7823 2.99892C11.7823 2.9806 11.8567 2.98976 11.8567 2.98976Z" fill="black"/>
<path d="M8.65206 6.78694C8.92139 6.76862 9.20003 6.83273 9.37656 7.01568C9.46942 7.10721 9.61806 7.20779 9.59946 7.29932C9.59946 7.32679 9.54368 7.4 9.49736 7.4549C9.46947 7.49142 9.38591 7.5738 9.35796 7.60127C9.32089 7.62875 9.19078 7.72938 9.16295 7.74769C9.13506 7.76601 9.09787 7.8118 9.07003 7.82091C8.97723 7.8667 8.87502 7.83006 8.78216 7.78433C8.6893 7.73859 8.80075 7.72938 8.69854 7.65622C8.4478 7.48237 8.3084 7.36337 8.41061 7.02484C8.41991 6.96078 8.52201 6.88757 8.65206 6.78694Z" fill="#EFEFEF"/>
<path opacity="0.4" d="M6.28364 4.69158C5.44768 5.02095 3.32067 6.06408 2.71692 6.38435C3.21846 6.6954 3.45066 7.44563 3.52504 8.20511C3.53428 8.27838 3.54358 8.34238 3.55287 8.41554C3.56217 8.47961 3.57145 8.52538 3.58071 8.55286C3.58071 8.56202 3.58071 8.58033 3.59 8.58938C4.13803 7.11631 6.09781 5.5608 6.17213 5.44185C6.20932 5.38696 6.12565 5.14906 6.25575 4.92037C6.42298 4.62752 6.7481 4.49936 6.28364 4.69158ZM8.27136 11.5997C8.69858 10.7579 8.70788 9.95272 8.69858 9.01029C8.69858 8.6168 8.98651 8.05869 8.83793 8.21422C8.28066 8.82723 6.87809 9.98014 5.86566 10.0442C7.28677 9.99841 7.84409 10.703 8.27136 11.5997Z" fill="black"/>
<path d="M1.89941 7.16211C2.42884 6.787 5.16891 5.35051 5.82844 5.14919C6.48786 4.93871 6.28349 4.69165 6.28349 4.69165C6.28349 4.69165 3.60845 5.8262 2.01087 6.80527" fill="black"/>
<path opacity="0.4" d="M9.70167 4.51781C9.48806 4.43544 9.32088 4.6825 9.37661 4.9204C9.43233 5.15829 9.93387 5.42361 9.90598 6.29289C9.88744 7.00659 9.72956 7.29933 9.72956 7.29933L9.37661 6.86022C9.37661 6.86022 9.32082 5.87199 9.20013 5.72557C9.07938 5.5792 8.69854 5.31382 8.54989 5.17661C8.40131 5.03935 8.71707 4.85634 8.69854 4.60018C8.67994 4.35312 8.85647 3.85901 8.85647 3.85901L9.70167 4.51781ZM10.9927 8.41561C10.9742 9.10178 11.1322 10.1174 11.1971 10.6024C11.2622 11.0873 11.3457 11.124 11.1971 11.3436C11.0485 11.554 10.8534 11.9017 10.8534 11.9017L10.2125 11.8468C10.2125 11.8468 10.7234 11.2063 10.7512 11.0873C10.7791 10.9684 10.4911 10.0626 10.4911 10.0626L10.9927 8.41561ZM9.75745 2.01077C9.8875 2.29435 10.0454 2.42246 10.2961 2.50483C10.4448 2.55978 11.0299 2.63293 11.2621 2.37672C11.3643 2.25777 11.2993 1.9375 11.2993 1.9375L10.7698 2.3584L10.0546 2.23029L9.97106 2.01987L9.75745 2.01077Z" fill="black"/>
<path d="M9.81316 2.64209C10.0547 2.79762 10.6584 2.94404 10.8256 2.97146C10.9928 3.00804 11.2622 2.79762 11.3921 2.74272C11.5315 2.67867 11.773 2.64209 12.0517 2.88915C12.0796 2.91662 11.9866 3.03552 11.9866 3.03552C11.9773 3.02636 11.9216 3.02636 11.8473 2.98973C11.773 2.9532 11.708 2.92567 11.5965 2.93488C11.1321 2.98973 11.0578 3.14531 10.6491 3.05378C10.2404 2.96225 10.1383 2.88909 9.73889 2.90736" fill="#88CE02"/>
<path d="M9.81316 2.64209C10.0547 2.79762 10.6584 2.94404 10.8256 2.97146C10.9928 3.00804 11.2622 2.79762 11.3921 2.74272C11.5315 2.67867 11.773 2.64209 12.0517 2.88915C12.0796 2.91662 11.9866 3.03552 11.9866 3.03552C11.9773 3.02636 11.9216 3.02636 11.8473 2.98973C11.773 2.9532 11.708 2.92567 11.5965 2.93488C11.1321 2.98973 11.0578 3.14531 10.6491 3.05378C10.2404 2.96225 10.1383 2.88909 9.73889 2.90736" stroke="black" stroke-width="1.586" stroke-linejoin="round"/>
<path d="M9.72954 2.66943C10.0361 2.79754 10.6305 2.93481 10.7977 2.97139C10.9649 3.00797 11.2342 2.84328 11.3643 2.76096C11.5965 2.61454 11.8937 2.73349 12.0331 2.88907C12.1259 2.98965 12.1631 3.05376 12.1631 3.08118C12.1631 3.11776 12.0517 3.08118 12.0517 3.08118C11.9866 3.0537 11.9123 3.0446 11.8566 3.00791C11.7823 2.97139 11.708 2.91649 11.5966 2.9256C11.1321 2.98054 11.0393 3.13607 10.6399 3.04454C10.2405 2.95302 10.1383 2.8707 9.71106 2.89812" fill="#88CE02"/>
<path d="M8.28981 11.2155C8.27122 11.1972 8.30841 11.1788 8.28981 11.1788C8.16912 11.1788 8.00188 11.0874 7.90897 10.9593C7.50959 10.392 6.92437 10.0169 5.86551 10.0443C4.27723 10.0809 3.64559 9.44045 3.52489 8.21437C3.45981 7.54647 3.27409 6.89677 2.89325 6.53076L2.67029 6.66803C3.09756 7.03403 3.23691 7.62878 3.32982 8.44311C3.47841 9.66919 4.48154 10.2365 5.65185 10.2548C6.86865 10.2731 7.30522 10.5201 7.76033 11.1241C7.90891 11.3162 8.07615 11.3802 8.20614 11.4077L8.28981 11.2155Z" fill="black"/>
<path opacity="0.4" d="M12.5996 5.33203C12.6275 5.46924 12.7018 5.73462 12.8504 5.86267C12.9154 5.92673 12.9247 5.94499 12.869 5.94499C12.8132 5.94499 12.4045 5.92672 12.4045 5.92672L12.2931 5.73462L12.5996 5.33203Z" fill="black"/>
</svg>
