<svg width="16" height="16" viewBox="0 0 16 16" fill="none" xmlns="http://www.w3.org/2000/svg">
<path d="M12.25 0H3.75C1.67893 0 0 1.67893 0 3.75V12.25C0 14.3211 1.67893 16 3.75 16H12.25C14.3211 16 16 14.3211 16 12.25V3.75C16 1.67893 14.3211 0 12.25 0Z" fill="#99424F"/>
<path d="M13.3346 7.90594C13.3346 7.15313 12.8171 6.51981 12.1223 6.33887L13.6784 1.75H5.96633L7.52614 6.35337C6.85295 6.54881 6.3572 7.17125 6.3572 7.9095C6.3572 8.45238 6.62858 8.93369 7.04114 9.23044C6.87833 9.46206 6.69014 9.67563 6.47658 9.87825C6.07489 10.2546 5.62977 10.5441 5.14845 10.7359C4.71414 10.4428 4.52595 9.92531 4.69608 9.46206C5.35833 9.25944 5.83964 8.64056 5.83964 7.91313C5.83964 7.01925 5.11227 6.29544 4.22195 6.29544C3.32808 6.29544 2.6007 7.02287 2.6007 7.91675C2.6007 8.35825 2.78164 8.76363 3.07114 9.05313C3.04583 9.10381 3.02052 9.15444 2.99514 9.20875C2.75264 9.70819 2.47764 10.2727 2.37264 10.9061C2.16277 12.1727 2.50658 13.1896 3.33533 13.7651C3.8022 14.0871 4.31608 14.25 4.86977 14.25C5.82158 14.25 6.78783 13.7723 7.72152 13.3091C8.38745 12.9798 9.07502 12.6359 9.75177 12.4694C10.0015 12.4079 10.2621 12.3718 10.5371 12.3319C11.0945 12.2523 11.6699 12.1691 12.1874 11.8687C12.7918 11.5177 13.2043 10.9314 13.3238 10.2583C13.4142 9.74075 13.3238 9.21963 13.0921 8.76363C13.2478 8.51388 13.3346 8.22075 13.3346 7.90594ZM12.6289 7.90594C12.6289 8.40894 12.22 8.81787 11.7169 8.81787C11.2138 8.81787 10.805 8.40894 10.805 7.90594C10.805 7.74306 10.8483 7.58744 10.9243 7.45356C10.9539 7.4025 10.9879 7.35405 11.0257 7.30875C11.0619 7.26538 11.1053 7.22556 11.1523 7.18937L11.156 7.18575C11.1849 7.164 11.2175 7.14231 11.2501 7.12056C11.2501 7.12056 11.2537 7.12056 11.2537 7.11694C11.2681 7.10975 11.2826 7.09888 11.2971 7.09163C11.3007 7.09163 11.3043 7.088 11.308 7.088C11.3225 7.08075 11.3405 7.07356 11.3586 7.06631C11.3767 7.05906 11.3948 7.05181 11.4093 7.04456C11.4129 7.04456 11.4165 7.04094 11.4201 7.04094C11.4346 7.03737 11.4491 7.03013 11.4636 7.0265C11.4672 7.0265 11.4745 7.02287 11.4781 7.02287C11.4961 7.01925 11.5106 7.01563 11.5287 7.012H11.5323L11.5866 7.00119C11.5903 7.00119 11.5975 7.00119 11.6011 6.99756C11.6156 6.99756 11.6301 6.99394 11.6445 6.99394H11.6626C11.6807 6.99394 11.6988 6.99031 11.7205 6.99031H11.7676C11.7821 6.99031 11.7929 6.99031 11.8074 6.99394H11.8146C11.8436 6.99756 11.8725 7.00119 11.9015 7.00838C12.314 7.09525 12.6289 7.46438 12.6289 7.90594ZM6.97602 2.47381H12.6687L11.3623 6.328C11.308 6.33888 11.2537 6.357 11.1994 6.37506L9.8242 3.57037L8.44533 6.357C8.39108 6.33887 8.33314 6.328 8.27527 6.31719L6.97602 2.47381ZM9.56358 7.59106C9.49483 7.25088 9.32114 6.94687 9.07502 6.7225L9.8242 5.20975L10.5805 6.75506C10.3561 6.97944 10.1933 7.26538 10.1281 7.59106H9.56358ZM7.75052 7.01925C7.76858 7.01562 7.78308 7.012 7.80114 7.00838H7.81202C7.82652 7.00475 7.84095 7.00475 7.85545 7.00119H7.86989C7.88439 7.00119 7.89527 6.99756 7.9097 6.99756H8.05089C8.06533 6.99756 8.0762 7.00119 8.08708 7.00119C8.09433 7.00119 8.09789 7.00119 8.10514 7.00475C8.11964 7.00837 8.13052 7.00838 8.14495 7.012C8.14858 7.012 8.1522 7.012 8.15945 7.01562C8.17752 7.01925 8.19564 7.02288 8.21008 7.0265H8.2137C8.2282 7.03013 8.2427 7.03375 8.25714 7.04094C8.26077 7.04094 8.26439 7.04456 8.27164 7.04456C8.28252 7.04819 8.29695 7.05181 8.30783 7.05906C8.31145 7.05906 8.31508 7.06269 8.3187 7.06269C8.33314 7.06994 8.34764 7.07356 8.36208 7.08075H8.3657C8.38383 7.088 8.39827 7.09525 8.41277 7.10612H8.41639C8.43089 7.11337 8.44533 7.12419 8.45983 7.13144C8.46345 7.13144 8.46345 7.13506 8.46708 7.13506C8.48152 7.14231 8.49239 7.15313 8.50689 7.16038L8.51045 7.164C8.55389 7.19656 8.5937 7.23275 8.63352 7.26894L8.63714 7.27256C8.67333 7.31238 8.70952 7.35581 8.73845 7.40287C8.83557 7.55132 8.88714 7.72492 8.88683 7.90231C8.88683 8.40531 8.47789 8.81425 7.97489 8.81425C7.47183 8.81425 7.06289 8.40531 7.06289 7.90231C7.05927 7.47887 7.35239 7.12056 7.75052 7.01925ZM4.18939 6.99394C4.69245 6.99394 5.10139 7.40288 5.10139 7.90594C5.10139 8.409 4.69245 8.81787 4.18939 8.81787C3.68633 8.81787 3.27739 8.40894 3.27739 7.90594C3.27739 7.40288 3.68639 6.99394 4.18939 6.99394ZM12.6072 10.1316C12.5276 10.5948 12.2416 11.0001 11.8218 11.2426C11.4274 11.4706 10.9425 11.543 10.4321 11.6154C10.1535 11.6552 9.86039 11.6986 9.57808 11.7674C8.82533 11.9519 8.10152 12.3138 7.39945 12.6613C6.50195 13.1064 5.65508 13.5262 4.86977 13.5262C4.46083 13.5262 4.09533 13.4104 3.74789 13.1679C2.9517 12.6178 2.99152 11.5864 3.08564 11.0219C3.17252 10.4935 3.41495 9.99769 3.64658 9.52363C3.66102 9.49463 3.67189 9.46931 3.68639 9.44038C3.76745 9.46969 3.85103 9.49149 3.93608 9.5055C3.79858 10.2727 4.18939 11.0653 4.94939 11.4561L5.08689 11.5285L5.23527 11.4742C5.86864 11.2499 6.45489 10.8843 6.97239 10.3958C7.26558 10.1208 7.51527 9.824 7.72514 9.50187C7.80839 9.51637 7.89164 9.52 7.97489 9.52C8.72764 9.52 9.36095 9.00244 9.54189 8.30762H10.1499C10.3308 9.00606 10.9641 9.52 11.7169 9.52C12.0173 9.52 12.296 9.43675 12.5348 9.29562C12.6289 9.567 12.6578 9.84931 12.6072 10.1316Z" fill="white"/>
</svg>
