<svg width="16" height="16" viewBox="0 0 16 16" fill="none" xmlns="http://www.w3.org/2000/svg">
<path d="M1.924 2.78667C2.67459 1.91166 3.60572 1.20952 4.65341 0.728485C5.70109 0.247453 6.8405 -0.00106657 7.99333 3.44057e-06C12.416 3.44057e-06 16 3.584 16 8.006C16 10.4327 14.92 12.608 13.2133 14.076L1.92467 2.78667H1.924ZM1.21133 3.75067L12.2487 14.788C11.8989 15.0084 11.5322 15.2009 11.1487 15.3653L0.634 4.85134C0.798889 4.46778 0.991333 4.10045 1.21133 3.75067ZM0.214667 6.10867L9.89133 15.7853C9.41756 15.9009 8.92978 15.9724 8.428 16L0 7.572C0.0262165 7.07864 0.0980791 6.58877 0.214667 6.10867ZM0.101333 9.35L6.65 15.8993C5.01467 15.6199 3.50637 14.8399 2.33326 13.6667C1.16015 12.4936 0.380067 10.9853 0.100667 9.35H0.101333Z" fill="black"/>
</svg>
