<svg width="16" height="16" viewBox="0 0 16 16" fill="none" xmlns="http://www.w3.org/2000/svg">
<path d="M8.00004 1.33325C8.87552 1.33325 9.74243 1.50569 10.5513 1.84072C11.3601 2.17575 12.095 2.66682 12.7141 3.28587C13.3331 3.90493 13.8242 4.63986 14.1592 5.4487C14.4943 6.25753 14.6667 7.12444 14.6667 7.99992C14.6667 9.76803 13.9643 11.4637 12.7141 12.714C11.4638 13.9642 9.76815 14.6666 8.00004 14.6666C7.12456 14.6666 6.25765 14.4941 5.44882 14.1591C4.63998 13.8241 3.90505 13.333 3.286 12.714C2.03575 11.4637 1.33337 9.76803 1.33337 7.99992C1.33337 6.23181 2.03575 4.53612 3.286 3.28587C4.53624 2.03563 6.23193 1.33325 8.00004 1.33325ZM11.1667 9.63325C12.4334 8.36658 12.3867 6.25992 11.06 4.93992C9.73337 3.61992 7.63337 3.56659 6.36671 4.83325C4.08004 7.11992 4.81337 11.1866 4.81337 11.1866C4.81337 11.1866 8.88671 11.9133 11.1667 9.63325ZM8.76671 5.23992L9.42004 6.57992L10.76 7.23325L9.42004 7.88658L8.76671 9.22658L8.11337 7.88658L6.77337 7.23325L8.11337 6.57992L8.76671 5.23992Z" fill="black"/>
</svg>
