<svg width="16" height="16" viewBox="0 0 16 16" fill="none" xmlns="http://www.w3.org/2000/svg">
<path d="M16 14.7744V1.22567C16 0.669418 15.63 0.200668 15.1225 0.050293L14.5469 0.395043L8.15527 7.21004L7.95464 7.83642L7.83789 8.43754L9.83102 15.8863L10.1391 16H14.7744C15.4511 16 16 15.4513 16 14.7744Z" fill="#EA6618"/>
<path d="M2.52534e-07 1.22563V14.7744C-0.000127451 14.9732 0.04818 15.169 0.140744 15.345C0.233308 15.5209 0.367342 15.6716 0.53125 15.7841L0.924375 15.5962L7.68938 8.3525L7.95463 7.83638L7.96488 7.33687L6.12363 0.3315L5.84463 0H1.22563C0.54875 0 2.52534e-07 0.54875 2.52534e-07 1.22563Z" fill="#D65813"/>
<path d="M7.9546 7.83638L15.1225 0.0502503C15.0095 0.0168413 14.8922 -8.31e-05 14.7744 3.06779e-07H5.84473L7.9546 7.83638Z" fill="#E05E11"/>
<path d="M1.22563 16.0001H10.1391L7.95463 7.83643L0.53125 15.7842C0.735314 15.9252 0.97758 16.0005 1.22563 16.0001Z" fill="#DE5C16"/>
<path d="M5.93246 6.06453H6.82121C7.17571 7.40091 7.57909 8.57379 8.02871 9.63241C8.53809 8.44141 8.91159 7.26766 9.22746 6.06453H10.0678C9.69134 7.55953 9.07609 9.06704 8.37209 10.6225H7.62871C6.95246 9.14841 6.37684 7.63278 5.93246 6.06453ZM2.99996 3.74854H4.97659V12.2257H2.99121V11.5723H4.20796V4.38429H2.99996V3.74854ZM13.0102 4.38429H11.8022V11.5723H13.019V12.2257H11.0337V3.74854H13.0102V4.38429Z" fill="white"/>
</svg>
