<svg width="16" height="16" viewBox="0 0 16 16" fill="none" xmlns="http://www.w3.org/2000/svg">
<path d="M13.486 10.5287C13.5529 10.4891 13.6088 10.4334 13.6487 10.3667C13.6869 10.2989 13.7075 10.2226 13.7087 10.1447L13.7167 7.57272C13.7178 7.49487 13.7385 7.41855 13.7767 7.35072C13.8167 7.28393 13.8729 7.22824 13.94 7.18872L15.3333 6.38672C15.4013 6.34898 15.4776 6.32881 15.5553 6.32805C15.6332 6.32922 15.7095 6.34984 15.7773 6.38805C15.8442 6.42766 15.9001 6.48335 15.94 6.55005C15.978 6.61795 15.9984 6.69426 15.9993 6.77205V11.4481C15.9991 11.5262 15.9783 11.6029 15.9391 11.6705C15.8999 11.7382 15.8437 11.7943 15.776 11.8334L10.514 14.8561C10.4467 14.8943 10.3707 14.9144 10.2933 14.9144C10.216 14.9144 10.1399 14.8943 10.0727 14.8561L5.94333 12.4947C5.87535 12.4558 5.81879 12.3997 5.77933 12.332C5.74007 12.2642 5.71938 12.1871 5.71933 12.1087V9.75072C5.71978 9.74761 5.72156 9.74672 5.72467 9.74805C5.72911 9.74938 5.73089 9.74827 5.73 9.74472V9.74205C5.73 9.74027 5.73089 9.73872 5.73267 9.73738L9.134 7.78405C9.13667 7.78205 9.13533 7.77738 9.132 7.77738L9.12933 7.77605L9.12867 7.77338L9.13533 5.46205C9.13544 5.3838 9.11499 5.3069 9.07603 5.23904C9.03707 5.17118 8.98096 5.11474 8.91333 5.07538C8.84567 5.03655 8.76902 5.01612 8.691 5.01612C8.61299 5.01612 8.53633 5.03655 8.46867 5.07538L5.94133 6.53272C5.87383 6.5713 5.79742 6.5916 5.71967 6.5916C5.64191 6.5916 5.5655 6.5713 5.498 6.53272L2.962 5.07272C2.89446 5.03396 2.81792 5.01361 2.74005 5.01372C2.66218 5.01383 2.5857 5.03438 2.51827 5.07333C2.45083 5.11228 2.39481 5.16825 2.3558 5.23565C2.3168 5.30305 2.29618 5.37951 2.296 5.45738V9.63538C2.29583 9.71323 2.27531 9.78968 2.23649 9.85715C2.19766 9.92462 2.14188 9.98078 2.07467 10.0201C2.00703 10.0581 1.93095 10.0788 1.85333 10.0801C1.7756 10.0793 1.69929 10.0591 1.63133 10.0214L0.224 9.21672C0.156016 9.17781 0.0994584 9.12171 0.0600002 9.05405C0.0206285 8.98597 -6.90076e-05 8.9087 1.72856e-07 8.83005L0.0126668 1.52805C0.0129086 1.45028 0.0335454 1.37392 0.0725174 1.30662C0.111489 1.23931 0.167433 1.1834 0.234765 1.14447C0.302097 1.10555 0.378462 1.08496 0.456237 1.08477C0.534012 1.08458 0.610477 1.10479 0.678 1.14338L5.498 3.91205C5.5655 3.95064 5.64191 3.97093 5.71967 3.97093C5.79742 3.97093 5.87383 3.95064 5.94133 3.91205L10.76 1.14338C10.828 1.10564 10.9043 1.08548 10.982 1.08472C11.0598 1.08589 11.1362 1.10651 11.204 1.14472C11.2709 1.18452 11.3269 1.24044 11.3667 1.30738C11.4044 1.37534 11.4246 1.45165 11.4253 1.52938V8.83338C11.4253 8.91138 11.4053 8.98805 11.366 9.05605C11.3267 9.12363 11.2704 9.17972 11.2027 9.21872L8.67933 10.6721C8.61151 10.7112 8.55518 10.7676 8.516 10.8354C8.47709 10.9031 8.45663 10.9799 8.45667 11.0581C8.45683 11.1362 8.47752 11.213 8.51667 11.2807C8.55631 11.3485 8.61311 11.4046 8.68133 11.4434L10.0733 12.236C10.1408 12.2732 10.2163 12.2932 10.2933 12.294C10.3709 12.293 10.447 12.2726 10.5147 12.2347L13.486 10.5287ZM13.778 3.97672C13.778 4.05514 13.7987 4.13216 13.838 4.20005C13.8778 4.26789 13.9349 4.324 14.0033 4.36272C14.0717 4.40111 14.149 4.42083 14.2274 4.4199C14.3058 4.41896 14.3826 4.3974 14.45 4.35738L15.784 3.55738C15.8492 3.51716 15.9034 3.46153 15.942 3.39538C15.9791 3.32816 15.999 3.25282 16 3.17605V1.54672C15.9997 1.46824 15.9788 1.39121 15.9393 1.32338C15.8995 1.25573 15.8425 1.19978 15.7742 1.16115C15.7058 1.12253 15.6285 1.1026 15.55 1.10338C15.4716 1.10436 15.3948 1.12597 15.3273 1.16605L13.994 1.96605C13.9286 2.00618 13.8741 2.06183 13.8353 2.12805C13.7985 2.19534 13.7788 2.27067 13.778 2.34738V3.97672Z" fill="#0882FF"/>
</svg>
