<svg width="16" height="16" viewBox="0 0 16 16" fill="none" xmlns="http://www.w3.org/2000/svg">
<path d="M9.41537 0.0499297C9.30312 0.0499297 9.19087 0.0748047 9.09112 0.11218C9.30312 0.24943 9.41537 0.43643 9.47775 0.64843C9.47775 0.67343 9.49025 0.69843 9.49025 0.723305C9.49025 0.748305 9.50275 0.77318 9.50275 0.798055C9.51525 1.1598 9.40287 1.20968 9.32812 1.42168C9.20337 1.69593 9.24088 1.9953 9.3905 2.23218C9.403 2.25718 9.4155 2.29468 9.44038 2.31955C9.27825 1.27205 10.1511 1.1223 10.3132 0.798055C10.3257 0.511305 10.0889 0.324305 9.90175 0.187055C9.71475 0.0748047 9.565 0.0498047 9.4155 0.0498047L9.41537 0.0499297ZM10.725 0.27418C10.7125 0.37393 10.725 0.349055 10.7125 0.39893C10.7125 0.436305 10.7125 0.47368 10.7 0.51118C10.6875 0.548555 10.6875 0.573555 10.675 0.61093C10.6625 0.648305 10.6501 0.673305 10.6376 0.71068C10.6251 0.73568 10.6126 0.760555 10.6001 0.79793C10.5878 0.81043 10.5752 0.83543 10.5629 0.84793C10.5504 0.86043 10.5504 0.872805 10.5379 0.885305C10.5129 0.910305 10.5004 0.947555 10.4755 0.972555L10.4008 1.04743C10.3758 1.07243 10.3508 1.0973 10.3259 1.10968C10.2386 1.17218 10.1389 1.22193 10.0515 1.2843C10.0265 1.3093 9.98912 1.3218 9.96425 1.34668C9.93925 1.37168 9.91425 1.38418 9.88937 1.40905L9.81462 1.4838C9.78962 1.5088 9.76462 1.5338 9.75212 1.57118C9.72725 1.59618 9.71475 1.63355 9.68987 1.65843C9.67737 1.69593 9.66488 1.7208 9.64 1.75818C9.6275 1.79568 9.615 1.82068 9.6025 1.85793C9.59 1.89543 9.57763 1.9328 9.57763 1.95768C9.57763 1.97018 9.57763 1.99518 9.56513 2.00768C9.56513 2.02018 9.56512 2.04505 9.55262 2.05755V2.23205C9.55262 2.26955 9.55263 2.29455 9.56513 2.3318C9.56513 2.3693 9.57763 2.3943 9.59013 2.43168C9.60263 2.46905 9.61513 2.49393 9.62763 2.53143C9.64 2.55643 9.6525 2.5688 9.6525 2.5938L8.70463 2.23205C8.5483 2.18469 8.39027 2.14312 8.23088 2.10743C8.1435 2.08243 8.05625 2.06993 7.96887 2.04493C7.72143 1.99539 7.47172 1.95798 7.22062 1.9328H7.19562C6.94625 1.9078 6.70938 1.8953 6.46 1.8953C6.27288 1.8953 6.09825 1.9078 5.92375 1.9203C5.67425 1.9328 5.425 1.9703 5.1755 2.00768L4.98838 2.04505C4.86375 2.07005 4.739 2.09493 4.61425 2.1323C4.55188 2.1448 4.48962 2.1698 4.42725 2.1823C4.36487 2.20718 4.3025 2.23205 4.25262 2.25705C4.20275 2.28205 4.16537 2.29455 4.1155 2.31943C4.103 2.31943 4.103 2.31943 4.0905 2.33193C4.053 2.3568 4.01575 2.3693 3.97825 2.39418C3.96575 2.39418 3.95325 2.40668 3.95325 2.40668C3.9035 2.43168 3.866 2.45668 3.82862 2.46905C3.80362 2.48155 3.76625 2.49405 3.74137 2.50655C3.72887 2.51893 3.71638 2.51893 3.70388 2.53143C3.6665 2.55643 3.62912 2.5688 3.59162 2.59368C3.55425 2.61868 3.51687 2.63118 3.49187 2.65618C3.46687 2.68105 3.4295 2.69355 3.40462 2.71843C3.40462 2.71843 3.39212 2.71843 3.39212 2.73093C3.36712 2.74343 3.34225 2.76843 3.31737 2.7933L3.30487 2.8058C3.27987 2.8183 3.26738 2.84318 3.2425 2.85568C3.23 2.85568 3.23 2.86818 3.2175 2.86818C3.19262 2.88068 3.18013 2.90555 3.15525 2.91793C3.15525 2.93043 3.14275 2.93043 3.14275 2.93043L3.06787 3.0053L3.05538 3.0178L2.98062 3.09255C2.98062 3.09255 2.98063 3.10505 2.96813 3.10505L2.90575 3.16743C2.89325 3.17993 2.88075 3.17993 2.88075 3.19243L2.806 3.26718C2.806 3.27968 2.7935 3.27968 2.7935 3.29218L2.69375 3.3918L2.68125 3.4043C2.619 3.47918 2.54412 3.54155 2.46937 3.60393C2.39462 3.6663 2.31962 3.72855 2.23237 3.79093C2.14512 3.8533 2.07025 3.90318 1.983 3.95305C1.89575 4.00293 1.80838 4.04031 1.72113 4.07781C1.63375 4.11518 1.5465 4.15256 1.45925 4.17756C1.28462 4.21506 1.11 4.2898 0.960375 4.30218C0.960375 4.23993 0.922875 4.25231 0.8855 4.25231C0.848125 4.26481 0.81075 4.26481 0.78575 4.27731C0.74825 4.28981 0.723375 4.30231 0.686 4.31481C0.650457 4.32633 0.616836 4.34309 0.58625 4.36455C0.56125 4.38955 0.523875 4.40205 0.499 4.42705C0.474 4.45193 0.4365 4.4768 0.411625 4.5018C0.386625 4.5268 0.34925 4.55168 0.324375 4.57655C0.299375 4.60155 0.274375 4.62655 0.2495 4.66393C0.2245 4.7013 0.199625 4.72618 0.187125 4.76368C0.16225 4.78868 0.14975 4.82606 0.124875 4.86343C0.112375 4.90093 0.087375 4.93818 0.074875 4.97568L0.0375 5.08793C0.025 5.1253 0.025 5.15018 0.0125 5.18768V5.20018C0 5.23768 0 5.28743 0 5.31243C0.0125 5.29993 0.0125 5.32493 0.0125 5.3498V5.39968C0.0125 5.42468 0.025 5.44956 0.025 5.47443C0.0375 5.49943 0.0375 5.52443 0.05 5.5493C0.062375 5.5743 0.074875 5.59918 0.09975 5.62418C0.11225 5.64918 0.13725 5.67405 0.14975 5.69893C0.174625 5.72393 0.1995 5.74893 0.2245 5.7613C0.2495 5.7863 0.274375 5.8113 0.29925 5.82368C0.399 5.91093 0.424 5.93593 0.54875 6.01068C0.57375 6.02318 0.586125 6.03568 0.611125 6.04818H0.623625V6.07318C0.623625 6.11043 0.636125 6.13543 0.6485 6.1728C0.661 6.2103 0.6735 6.24768 0.686 6.27255L0.72325 6.34743C0.72325 6.35993 0.73575 6.35993 0.73575 6.37243C0.74825 6.4098 0.77325 6.43468 0.78575 6.45968C0.810625 6.48468 0.823125 6.52205 0.848 6.54693L0.922875 6.6218L0.997625 6.69656H1.01013C1.03513 6.72156 1.06 6.73406 1.085 6.75906C1.11 6.78406 1.14738 6.79643 1.17225 6.8088C1.19725 6.8213 1.23462 6.8463 1.272 6.8588C1.297 6.8713 1.322 6.88368 1.35925 6.88368C1.35925 6.88368 1.37175 6.88368 1.37175 6.89618C1.38425 6.89618 1.40925 6.90868 1.42175 6.90868C1.40925 7.13305 1.40925 7.34505 1.43425 7.41993C1.4715 7.50718 1.65863 7.2453 1.83325 6.95855C1.80825 7.2453 1.79575 7.58206 1.83325 7.68181C1.88313 7.78156 2.12 7.45731 2.3445 7.10806C5.26262 6.43468 7.93138 8.45493 8.21825 11.3108C8.16825 10.8618 7.6195 10.6124 7.35775 10.6748C7.233 10.9741 7.021 11.3732 6.68437 11.6101C6.70937 11.3356 6.69687 11.0613 6.64687 10.7871C6.55962 11.1612 6.385 11.5228 6.13562 11.8221C5.749 11.8471 5.35 11.6599 5.15037 11.3732C5.13787 11.3607 5.12537 11.3357 5.113 11.3232C5.1005 11.2983 5.088 11.2609 5.0755 11.2359C5.063 11.2109 5.05062 11.1736 5.05062 11.1487V10.9991C5.05062 10.9741 5.06312 10.9366 5.07562 10.9117C5.08812 10.8868 5.08813 10.8493 5.10063 10.8244C5.113 10.7994 5.1255 10.7621 5.15037 10.7372C5.22525 10.5376 5.22525 10.3754 5.088 10.2882L5.01325 10.2507C5.00075 10.2507 4.97575 10.2383 4.96325 10.2383C4.95075 10.2383 4.93838 10.2258 4.92588 10.2258C4.901 10.2133 4.86362 10.2133 4.83862 10.2008C4.81362 10.1883 4.77625 10.1883 4.75138 10.1883C4.72638 10.1883 4.68888 10.1759 4.664 10.1759H4.60175C4.56425 10.1759 4.53925 10.1759 4.51438 10.1884C4.48938 10.1884 4.452 10.2009 4.42712 10.2009C4.40212 10.2134 4.36475 10.2134 4.33975 10.2259C4.31487 10.2383 4.28988 10.2508 4.2525 10.2632L4.17763 10.3007C3.21738 10.9242 3.79112 12.3957 4.43962 12.8197C4.19012 12.8697 3.94075 12.9194 3.86588 12.9694L3.85337 12.9819C4.028 13.0941 4.21513 13.1814 4.41463 13.2562C4.6765 13.3436 4.96337 13.4183 5.088 13.4558C5.42475 13.5306 5.774 13.5556 6.12313 13.5306C7.94388 13.4058 9.44038 12.0092 9.71463 10.1884C9.72713 10.2259 9.72712 10.2632 9.73962 10.3007C9.75212 10.3754 9.76463 10.4503 9.77713 10.5376C9.78963 10.5751 9.78963 10.6124 9.78963 10.6498V10.6623C9.78963 10.6998 9.802 10.7372 9.802 10.7746C9.802 10.8244 9.8145 10.8618 9.8145 10.9117V11.4354C9.8145 11.4729 9.802 11.4979 9.802 11.5353V11.5727C9.802 11.6102 9.7895 11.6476 9.7895 11.6974C9.777 11.7348 9.777 11.7722 9.7645 11.8097V11.8222C9.752 11.8596 9.752 11.8969 9.73962 11.9343V11.9468C9.72712 11.9843 9.72713 12.0217 9.71463 12.0591V12.0716L9.67725 12.1838V12.1963C9.66475 12.2337 9.65225 12.2836 9.63988 12.3209C9.62738 12.3584 9.61488 12.3958 9.58988 12.4457C9.5775 12.4831 9.565 12.5329 9.54012 12.5703C9.52762 12.6078 9.50262 12.6452 9.49012 12.6951C9.47775 12.7326 9.45275 12.7699 9.44038 12.8073C9.44038 12.8198 9.42787 12.8323 9.42787 12.8323C9.42787 12.8323 9.42787 12.8448 9.41537 12.8448C9.1535 13.3809 8.7545 13.8548 8.25562 14.2289C8.21812 14.2539 8.19325 14.2789 8.15588 14.3038C8.14338 14.3163 8.13087 14.3163 8.13087 14.3288C8.10587 14.3537 8.0685 14.3662 8.04362 14.3911L8.05612 14.4161C8.11837 14.4036 8.16838 14.4036 8.23063 14.3911C8.34288 14.3786 8.44263 14.3536 8.55488 14.3287C8.57988 14.3287 8.61738 14.3162 8.64225 14.3037C8.66725 14.3037 8.67963 14.2912 8.7045 14.2912C8.72938 14.2912 8.767 14.2788 8.79187 14.2788C8.81687 14.2663 8.84175 14.2663 8.86662 14.2538C9.27825 14.1542 9.67725 14.0169 10.0639 13.8548C9.40288 14.7527 8.53 15.4761 7.50737 15.9498C7.98125 15.9124 8.45513 15.8377 8.9165 15.7004C10.5733 15.2139 11.9714 14.0937 12.8074 12.5828C12.6329 13.5306 12.2586 14.4409 11.6975 15.2391C12.0966 14.9772 12.4583 14.6653 12.795 14.3287C13.7178 13.3684 14.3287 12.1338 14.5284 10.8244C14.6656 11.4729 14.7155 12.1463 14.6531 12.8073C17.6336 8.65455 14.9025 4.35218 13.7552 3.2173C13.7552 3.2048 13.7428 3.2048 13.7428 3.1923C13.7428 3.2423 13.7428 3.29205 13.7303 3.34205C13.7178 3.4418 13.7052 3.52905 13.6927 3.6163C13.6679 3.70368 13.643 3.80343 13.618 3.89068C13.593 3.97805 13.5556 4.0653 13.5183 4.15255C13.4809 4.2398 13.4434 4.32718 13.3935 4.40205C13.3436 4.47693 13.2937 4.56418 13.2439 4.63893C13.194 4.71368 13.1316 4.78856 13.0693 4.86343C13.007 4.93831 12.9446 5.00055 12.8698 5.07543C12.8323 5.11293 12.795 5.1503 12.7451 5.17518C12.7076 5.20018 12.6826 5.22518 12.6453 5.26243C12.5705 5.32493 12.4956 5.37468 12.4084 5.42455C12.3335 5.47455 12.2463 5.52443 12.159 5.5618L11.897 5.67406C11.8098 5.71143 11.7225 5.73643 11.6351 5.7613C11.5479 5.7863 11.4481 5.8113 11.3608 5.82368C11.261 5.83618 11.1738 5.84868 11.0865 5.86118C11.024 5.86118 10.9493 5.87355 10.8869 5.87355C10.7871 5.87355 10.6999 5.86105 10.6126 5.86105C10.5128 5.84855 10.4255 5.83605 10.3383 5.82355C10.2437 5.81201 10.1512 5.78683 10.0639 5.74881C10.1511 5.73631 10.2509 5.73631 10.3383 5.71143C10.438 5.69893 10.5253 5.67393 10.6126 5.64906C10.6999 5.62406 10.7996 5.59918 10.8745 5.5618L11.1364 5.44955C11.2236 5.41205 11.2985 5.3623 11.3857 5.31243C11.4606 5.26243 11.5479 5.20018 11.6228 5.1503C11.6975 5.0878 11.7724 5.02556 11.8348 4.96318C11.9095 4.90081 11.9719 4.82605 12.0343 4.76368C12.0966 4.6888 12.159 4.61405 12.2089 4.53918C12.2214 4.52668 12.2214 4.51418 12.2339 4.50168C12.2711 4.43943 12.321 4.36455 12.3585 4.3023C12.4049 4.22165 12.4465 4.13834 12.4831 4.0528C12.5206 3.96555 12.5581 3.87818 12.583 3.79093L12.6578 3.52905C12.6703 3.4293 12.6952 3.34205 12.6952 3.25468C12.7077 3.15493 12.7078 3.06768 12.7078 2.9803C12.7078 2.91805 12.7077 2.84318 12.6952 2.7808C12.6827 2.68105 12.6703 2.5938 12.6578 2.50643C12.6453 2.40668 12.6203 2.31943 12.5954 2.23205C12.5704 2.1448 12.533 2.05755 12.5081 1.97018C12.4706 1.88293 12.4332 1.79568 12.3959 1.7208C12.346 1.63355 12.3086 1.55868 12.2587 1.47143C12.2087 1.39655 12.1465 1.32168 12.0966 1.24693C12.0343 1.17205 11.9719 1.10968 11.9095 1.03493C11.8721 0.99743 11.8347 0.960055 11.7972 0.93518C11.6102 0.785555 11.4231 0.660805 11.2236 0.536055C11.1986 0.523555 11.1738 0.511055 11.1364 0.498555C10.9743 0.361555 10.8496 0.324055 10.725 0.27418Z" fill="#DF234F"/>
</svg>
