<svg width="16" height="16" viewBox="0 0 16 16" fill="none" xmlns="http://www.w3.org/2000/svg">
<path d="M7.677 1.41547L2.3235 4.43047C2.22574 4.48431 2.14418 4.56334 2.08729 4.65936C2.0304 4.75537 2.00026 4.86487 2 4.97647V11.015C2.00047 11.1267 2.03063 11.2362 2.08738 11.3324C2.14414 11.4287 2.22546 11.508 2.323 11.5625L7.6775 14.582C7.77627 14.6375 7.88768 14.6667 8.001 14.6667C8.11432 14.6667 8.22573 14.6375 8.3245 14.582L13.677 11.563C13.7746 11.5085 13.856 11.429 13.9127 11.3327C13.9695 11.2364 13.9996 11.1268 14 11.015V4.97997C13.9998 4.86828 13.9697 4.75868 13.9128 4.66257C13.8559 4.56646 13.7743 4.48735 13.6765 4.43347L8.325 1.41797C8.22623 1.36243 8.11482 1.33325 8.0015 1.33325C7.88818 1.33325 7.77677 1.36243 7.678 1.41797L7.677 1.41547Z" fill="#388E3C"/>
<path d="M2.15247 11.3921C2.20469 11.4586 2.2694 11.5143 2.34297 11.5561L6.93547 14.1461L7.70047 14.5771C7.81353 14.6414 7.94329 14.6703 8.07297 14.6601C8.11592 14.6563 8.15843 14.6486 8.19997 14.6371L13.8465 4.54106C13.8034 4.49515 13.7539 4.45574 13.6995 4.42406L10.19 2.44706L8.33747 1.40606C8.28491 1.37675 8.22854 1.35487 8.16997 1.34106L2.15247 11.3921Z" fill="#4CAF50"/>
<path d="M13.8465 11.3921C13.7944 11.4586 13.7299 11.5143 13.6565 11.5561L9.06397 14.1461L8.29897 14.5771C8.1859 14.6414 8.05614 14.6703 7.92647 14.6601C7.88351 14.6563 7.841 14.6486 7.79947 14.6371L2.15247 4.54006C2.19569 4.49411 2.24538 4.4547 2.29997 4.42306L5.80897 2.44706L7.66147 1.40606C7.71402 1.37675 7.77039 1.35487 7.82897 1.34106L13.8465 11.3921Z" fill="#66BB6A"/>
</svg>
