<svg width="14" height="16" viewBox="0 0 14 16" fill="none" xmlns="http://www.w3.org/2000/svg">
<path d="M10.9403 14.8562C10.8434 15.5875 10.1278 16.1562 9.41843 15.9593C8.40587 15.6813 7.23403 15.2469 6.18091 15.1656L4.56531 15.0406C4.30475 15.0225 4.06 14.909 3.87779 14.7219L1.09651 11.8562C0.947323 11.7036 0.847556 11.5096 0.810213 11.2994C0.77287 11.0893 0.799681 10.8728 0.887154 10.6781C0.887154 10.6781 2.60587 6.89685 2.67155 6.69997C2.73395 6.50309 2.97155 4.78749 3.10899 3.86877C3.14659 3.62189 3.26531 3.39997 3.45275 3.23437L6.74339 0.27189C6.90686 0.125055 7.11172 0.0323417 7.32992 0.00644886C7.54812 -0.019444 7.76898 0.0227493 7.96227 0.12725C8.0906 0.19656 8.20331 0.291512 8.29339 0.40621L11.0559 3.91877C11.2095 4.11982 11.293 4.36573 11.2934 4.61877C11.2934 5.28437 11.3496 6.64997 11.7184 7.53125C12.0778 8.38437 12.734 9.31245 13.0778 9.76557C13.1432 9.85033 13.182 9.95259 13.1892 10.0594C13.1964 10.1662 13.1718 10.2728 13.1184 10.3656C12.6724 11.1139 12.2056 11.8496 11.7184 12.5719C11.2496 13.2688 11.034 14.1313 10.9372 14.8562H10.9403Z" fill="#6C31E3"/>
<path d="M4.17805 14.9407C5.47181 12.3156 5.43429 10.4344 4.88429 9.09692C4.37805 7.8594 3.43741 7.08132 2.69677 6.59692C2.67903 6.66628 2.65603 6.73418 2.62797 6.80004L0.887408 10.6813C0.799542 10.8757 0.772222 11.092 0.809007 11.3021C0.845791 11.5123 0.944974 11.7064 1.09365 11.8594L3.87805 14.7251C3.96446 14.815 4.066 14.889 4.17805 14.9438V14.9407Z" fill="url(#paint0_radial_235_272)"/>
<path d="M7.69364 9.61239C8.04364 9.64991 8.3874 9.72495 8.71868 9.84991C9.78116 10.2468 10.7499 11.1374 11.5468 12.8593C11.603 12.7624 11.6592 12.6655 11.7218 12.5718C12.2084 11.8492 12.6752 11.1135 13.1218 10.3655C13.1764 10.2731 13.2018 10.1664 13.1945 10.0593C13.1872 9.95215 13.1477 9.84975 13.0812 9.76551C12.7374 9.30927 12.0812 8.38431 11.7218 7.53119C11.353 6.64991 11.2999 5.28119 11.2968 4.61871C11.2968 4.36551 11.2156 4.11871 11.0592 3.91871L8.29364 0.406147C8.2786 0.387907 8.26298 0.370201 8.24676 0.353027C8.42874 0.897948 8.45043 1.48366 8.30924 2.04055C8.1754 2.49021 7.99088 2.9232 7.75924 3.33119L7.53428 3.77495C7.17355 4.46175 6.96668 5.21886 6.92804 5.99367C6.89052 6.91239 7.07804 8.06863 7.69364 9.61239Z" fill="url(#paint1_radial_235_272)"/>
<path d="M7.69373 9.61274C7.07813 8.06898 6.88749 6.91274 6.92813 5.9909C6.96677 5.21609 7.17364 4.45898 7.53437 3.77218C7.60621 3.62218 7.68437 3.4753 7.75933 3.33154C7.98125 2.89714 8.19685 2.48778 8.30933 2.03778C8.45051 1.48089 8.42882 0.89518 8.24685 0.350259C8.05726 0.141329 7.79256 0.0161083 7.51078 0.0020563C7.22901 -0.0119957 6.95316 0.0862679 6.74373 0.2753L3.44997 3.2377C3.26625 3.40323 3.14582 3.62751 3.10933 3.8721L2.70933 6.52842L2.69373 6.60026C3.43749 7.08466 4.38125 7.86274 4.88437 9.10026C4.98832 9.35091 5.06989 9.61027 5.12813 9.8753C6.00309 9.66274 6.86877 9.53154 7.69373 9.61586V9.61274Z" fill="url(#paint2_radial_235_272)"/>
<path d="M9.41874 15.9626C10.1281 16.1564 10.8437 15.5876 10.9406 14.8564C11.0213 14.1598 11.2266 13.4834 11.5468 12.8595C10.7468 11.1408 9.78122 10.247 8.72186 9.85013C7.59682 9.43141 6.37186 9.56893 5.1281 9.87205C5.40618 11.1345 5.24058 12.7876 4.1781 14.9408C4.30306 14.997 4.43122 15.0345 4.56866 15.0439C4.56866 15.0439 5.33122 15.1064 6.2437 15.172C7.14994 15.2345 8.50618 15.7064 9.41874 15.9595V15.9626Z" fill="url(#paint3_radial_235_272)"/>
<path fill-rule="evenodd" clip-rule="evenodd" d="M6.93428 5.93111C6.89364 6.84359 7.00924 7.89359 7.62492 9.43423L7.43116 9.41855C6.87804 7.80919 6.75924 6.98111 6.79988 6.05607C6.84727 5.2688 7.06477 4.50117 7.4374 3.80607C7.51236 3.65295 7.6874 3.36543 7.76548 3.21855C7.9874 2.79047 8.1374 2.56231 8.26548 2.16863C8.44364 1.62175 8.40612 1.35919 8.38428 1.10303C8.52804 2.03735 7.9874 2.85295 7.58116 3.67799C7.2076 4.3733 6.98704 5.14045 6.93428 5.92799V5.93111Z" fill="url(#paint4_radial_235_272)"/>
<path fill-rule="evenodd" clip-rule="evenodd" d="M5.06562 9.16239C5.14066 9.33119 5.20938 9.46863 5.25314 9.67807L5.08754 9.71239C5.02194 9.46871 4.96874 9.29367 4.87506 9.08743C4.31874 7.77495 3.42818 7.09991 2.6969 6.60303C3.57818 7.07807 4.48442 7.82183 5.0625 9.16239H5.06562Z" fill="url(#paint5_radial_235_272)"/>
<path fill-rule="evenodd" clip-rule="evenodd" d="M5.2624 9.84058C5.56872 11.2781 5.22496 13.0968 4.2124 14.8687C5.05928 13.1124 5.46872 11.4281 5.12808 9.86866L5.2624 9.84058Z" fill="url(#paint6_radial_235_272)"/>
<path fill-rule="evenodd" clip-rule="evenodd" d="M8.75935 9.7123C10.4187 10.3342 11.0593 11.6998 11.5375 12.8373C10.9437 11.6467 10.125 10.328 8.69999 9.83734C7.61247 9.46854 6.69687 9.5123 5.12815 9.86854L5.09375 9.7123C6.75623 9.33422 7.62503 9.29046 8.75935 9.7123Z" fill="url(#paint7_radial_235_272)"/>
<defs>
<radialGradient id="paint0_radial_235_272" cx="0" cy="0" r="1" gradientUnits="userSpaceOnUse" gradientTransform="translate(4.03741 14.6813) rotate(-104.693) scale(7.26897 4.84334)">
<stop stop-color="white" stop-opacity="0.4"/>
<stop offset="1" stop-opacity="0.1"/>
</radialGradient>
<radialGradient id="paint1_radial_235_272" cx="0" cy="0" r="1" gradientUnits="userSpaceOnUse" gradientTransform="translate(10.2437 11.6874) rotate(-82.485) scale(11.9464 8.82608)">
<stop stop-color="white" stop-opacity="0.6"/>
<stop offset="1" stop-color="white" stop-opacity="0.1"/>
</radialGradient>
<radialGradient id="paint2_radial_235_272" cx="0" cy="0" r="1" gradientUnits="userSpaceOnUse" gradientTransform="translate(4.47499 9.58778) rotate(-77.795) scale(10.1993 6.96903)">
<stop stop-color="white" stop-opacity="0.8"/>
<stop offset="1" stop-color="white" stop-opacity="0.4"/>
</radialGradient>
<radialGradient id="paint3_radial_235_272" cx="0" cy="0" r="1" gradientUnits="userSpaceOnUse" gradientTransform="translate(9.47186 16.0001) rotate(-120.496) scale(5.91154 6.79566)">
<stop stop-color="white" stop-opacity="0.3"/>
<stop offset="1" stop-opacity="0.3"/>
</radialGradient>
<radialGradient id="paint4_radial_235_272" cx="0" cy="0" r="1" gradientUnits="userSpaceOnUse" gradientTransform="translate(8.68117 3.99979) rotate(102.236) scale(5.30809 3.57945)">
<stop stop-color="white" stop-opacity="0"/>
<stop offset="1" stop-color="white" stop-opacity="0.2"/>
</radialGradient>
<radialGradient id="paint5_radial_235_272" cx="0" cy="0" r="1" gradientUnits="userSpaceOnUse" gradientTransform="translate(2.46258 6.87495) rotate(45.3237) scale(3.91125 8.33088)">
<stop stop-color="white" stop-opacity="0.2"/>
<stop offset="1" stop-color="white" stop-opacity="0.4"/>
</radialGradient>
<radialGradient id="paint6_radial_235_272" cx="0" cy="0" r="1" gradientUnits="userSpaceOnUse" gradientTransform="translate(5.71232 8.86866) rotate(86.04) scale(4.07222 8.6476)">
<stop stop-color="white" stop-opacity="0.2"/>
<stop offset="1" stop-color="white" stop-opacity="0.3"/>
</radialGradient>
<radialGradient id="paint7_radial_235_272" cx="0" cy="0" r="1" gradientUnits="userSpaceOnUse" gradientTransform="translate(11.4939 12.4686) rotate(-152.289) scale(6.98911 21.9876)">
<stop stop-color="white" stop-opacity="0.2"/>
<stop offset="0.5" stop-color="white" stop-opacity="0.2"/>
<stop offset="1" stop-color="white" stop-opacity="0.3"/>
</radialGradient>
</defs>
</svg>
