<svg width="16" height="16" viewBox="0 0 16 16" fill="none" xmlns="http://www.w3.org/2000/svg">
<path d="M6.47198 10.6454V9.69276L3.82531 10.4428C3.82531 10.4428 4.02131 9.30743 5.40131 8.91543C5.74823 8.81123 6.11484 8.79045 6.47131 8.85476V4.94809H7.79664C7.68688 4.59684 7.553 4.25358 7.39598 3.92076C7.20198 3.52676 7.00331 3.78743 6.55198 4.16543C6.23398 4.43076 5.43064 4.99743 4.22198 5.32343C3.01331 5.64943 2.03665 5.56276 1.62865 5.49209C1.05065 5.39209 0.747978 5.26476 0.776645 5.70543C0.801312 6.09209 0.893312 6.69409 1.10464 7.48743C1.56331 9.20743 3.07598 12.5208 5.93465 11.7508C6.68131 11.5494 7.20798 11.1521 7.57398 10.6441H6.47198V10.6454ZM2.20264 7.51143L4.23398 6.97609C4.23398 6.97609 4.17398 7.75809 3.41264 7.95876C2.65131 8.15943 2.20264 7.51143 2.20264 7.51143Z" fill="#EF5350"/>
<path d="M14.1186 4.99323C13.5906 5.08656 12.3226 5.20123 10.7573 4.78123C9.19063 4.36123 8.15197 3.62856 7.73997 3.28389C7.15597 2.79523 6.89997 2.45456 6.64663 2.96856C6.4233 3.42189 6.13797 4.15923 5.8613 5.19323C5.26263 7.42923 4.81463 12.1479 8.51797 13.1406C12.2213 14.1332 14.1926 9.8219 14.7913 7.58523C15.0686 6.55323 15.1893 5.77189 15.2226 5.26723C15.2613 4.69589 14.8693 4.86189 14.1186 4.99389V4.99323ZM6.6773 6.84389C6.6773 6.84389 7.26063 5.93523 8.25063 6.21723C9.2413 6.49856 9.3173 7.59389 9.3173 7.59389L6.6773 6.84389ZM9.0933 10.9172C7.35263 10.4072 7.08397 9.01856 7.08397 9.01856L11.7613 10.3266C11.7613 10.3266 10.8173 11.4199 9.0933 10.9172ZM10.748 8.06389C10.748 8.06389 11.3306 7.15589 12.32 7.43856C13.3093 7.72123 13.388 8.81523 13.388 8.81523L10.748 8.06389Z" fill="#4CAF50"/>
</svg>
