<svg width="16" height="16" viewBox="0 0 16 16" fill="none" xmlns="http://www.w3.org/2000/svg">
<path d="M15.9346 9.01581C16.4945 4.63263 13.399 0.625312 9.02381 0.0654375C4.64862 -0.4945 0.625312 2.601 0.0654375 6.97619C-0.4945 11.3514 2.601 15.3667 6.97619 15.9346C11.3594 16.4945 15.3667 13.399 15.9346 9.01581Z" fill="#FF6C37"/>
<path d="M10.8875 5.13652L7.51206 8.51196L6.56018 7.56008C9.87962 4.24071 10.2076 4.52864 10.8875 5.13652Z" fill="white"/>
<path d="M7.51208 8.5919C7.48808 8.5919 7.47208 8.5839 7.45608 8.5679L6.49627 7.61609C6.48869 7.60887 6.48266 7.60019 6.47854 7.59057C6.47442 7.58095 6.47229 7.57059 6.47229 7.56012C6.47229 7.54966 6.47442 7.5393 6.47854 7.52968C6.48266 7.52006 6.48869 7.51137 6.49627 7.50415C9.87164 4.12872 10.2236 4.44865 10.9355 5.08853C10.9515 5.10453 10.9595 5.12053 10.9595 5.14453C10.9595 5.16853 10.9515 5.18453 10.9355 5.20053L7.56008 8.5679C7.55208 8.5839 7.52808 8.5919 7.51208 8.5919ZM6.67227 7.56009L7.51208 8.39997L10.7675 5.14453C10.1756 4.61665 9.77564 4.45659 6.67227 7.56009Z" fill="#FF6C37"/>
<path d="M8.47987 9.47982L7.56006 8.55994L10.9354 5.18457C11.8393 6.09645 10.4876 7.57613 8.47987 9.47982Z" fill="white"/>
<path d="M8.47985 9.55975C8.45585 9.55975 8.43985 9.55175 8.42391 9.53575L7.50404 8.61588C7.48804 8.59988 7.48804 8.58388 7.48804 8.55988C7.48804 8.53594 7.49604 8.51988 7.51204 8.50394L10.8875 5.1285C10.8947 5.12091 10.9034 5.11487 10.913 5.11075C10.9226 5.10662 10.933 5.10449 10.9435 5.10449C10.9539 5.10449 10.9643 5.10662 10.9739 5.11075C10.9836 5.11487 10.9923 5.12091 10.9995 5.1285C11.1016 5.22301 11.1823 5.3383 11.2361 5.46662C11.2899 5.59494 11.3156 5.7333 11.3114 5.87238C11.2954 6.76025 10.2877 7.888 8.54391 9.53575C8.51991 9.55175 8.49591 9.55975 8.47991 9.55975M7.6721 8.55988C8.18397 9.07981 8.39997 9.28775 8.47991 9.36775C9.82366 8.088 11.1274 6.77625 11.1355 5.87238C11.1435 5.66444 11.0635 5.45644 10.9275 5.2965L7.6721 8.55988Z" fill="#FF6C37"/>
<path d="M6.5763 7.58416L7.25618 8.26404C7.27218 8.28004 7.27218 8.29604 7.25618 8.31204C7.24818 8.32004 7.24818 8.32004 7.24018 8.32004L5.83243 8.62397C5.76043 8.63197 5.69643 8.58397 5.68043 8.51204C5.67243 8.47204 5.68843 8.43204 5.71243 8.40804L6.5283 7.59216C6.5443 7.57616 6.5683 7.56816 6.5763 7.58416Z" fill="white"/>
<path d="M5.8084 8.7038C5.6884 8.7038 5.60046 8.6078 5.60046 8.48787C5.60046 8.43187 5.62446 8.37587 5.66446 8.33587L6.48028 7.51999C6.52828 7.47999 6.59228 7.47999 6.64028 7.51999L7.32015 8.19987C7.36815 8.23987 7.36815 8.31187 7.32015 8.35987C7.30415 8.37587 7.28815 8.38387 7.26415 8.39187L5.8564 8.6958C5.8404 8.6958 5.8244 8.7038 5.8084 8.7038ZM6.55228 7.67199L5.7684 8.45587C5.7524 8.47187 5.7444 8.49587 5.7604 8.51987C5.7684 8.54387 5.7924 8.5518 5.8164 8.54387L7.13615 8.25587L6.55228 7.67199Z" fill="#FF6C37"/>
<path d="M12.6711 3.26481C12.1593 2.76887 11.3354 2.78487 10.8395 3.30481C10.3436 3.82468 10.3596 4.64056 10.8795 5.13643C11.0847 5.3347 11.3498 5.45948 11.6334 5.49132C11.9169 5.52315 12.2031 5.46026 12.4471 5.31243L11.5353 4.40056L12.6711 3.26481Z" fill="white"/>
<path d="M11.7753 5.57645C11.0154 5.57645 10.3995 4.96058 10.3995 4.2007C10.3995 3.44083 11.0154 2.82495 11.7753 2.82495C12.1272 2.82495 12.4712 2.96095 12.7272 3.20889C12.7431 3.22489 12.7511 3.24089 12.7511 3.26489C12.7511 3.28889 12.7431 3.30489 12.7271 3.32089L11.6473 4.40064L12.4952 5.24851C12.5272 5.28051 12.5272 5.32851 12.4952 5.36051L12.4792 5.37651C12.2712 5.50445 12.0232 5.57645 11.7753 5.57645ZM11.7753 2.99301C11.1034 2.99301 10.5595 3.53689 10.5675 4.20876C10.5675 4.88064 11.1114 5.42458 11.7833 5.41658C11.9672 5.41658 12.1512 5.37658 12.3192 5.28858L11.4793 4.4567C11.4633 4.4407 11.4553 4.4247 11.4553 4.4007C11.4553 4.37676 11.4633 4.3607 11.4793 4.34476L12.5512 3.27289C12.3352 3.08895 12.0632 2.99301 11.7753 2.99301Z" fill="#FF6C37"/>
<path d="M12.6952 3.28895L12.6792 3.27295L11.5354 4.4007L12.4392 5.30457C12.5272 5.24857 12.6152 5.18457 12.6872 5.11257C12.8083 4.99388 12.9047 4.85231 12.9708 4.69608C13.0369 4.53985 13.0713 4.37206 13.072 4.20243C13.0728 4.03281 13.0398 3.86472 12.9752 3.70792C12.9105 3.55111 12.8153 3.4087 12.6952 3.28895Z" fill="white"/>
<path d="M12.4471 5.39245C12.4231 5.39245 12.4071 5.38445 12.3911 5.36845L11.4793 4.45657C11.4633 4.44057 11.4553 4.42457 11.4553 4.40057C11.4553 4.37664 11.4633 4.36057 11.4793 4.34464L12.6151 3.20882C12.6223 3.20124 12.631 3.1952 12.6406 3.19107C12.6502 3.18694 12.6606 3.18481 12.6711 3.18481C12.6815 3.18481 12.6919 3.18694 12.7015 3.19107C12.7112 3.1952 12.7199 3.20124 12.7271 3.20882L12.7511 3.22482C13.287 3.7607 13.287 4.62457 12.7591 5.16845C12.6791 5.24845 12.5911 5.32045 12.4951 5.37645C12.4711 5.38445 12.4551 5.39245 12.4471 5.39245ZM11.6473 4.40057L12.4551 5.20845C12.5191 5.16845 12.5831 5.11245 12.6311 5.06451C13.087 4.60857 13.111 3.8647 12.6711 3.38476L11.6473 4.40057Z" fill="#FF6C37"/>
<path d="M11.0234 5.28041C10.9311 5.18824 10.806 5.13647 10.6755 5.13647C10.545 5.13647 10.4199 5.18824 10.3276 5.28041L7.31213 8.29585L7.81601 8.79979L11.0074 6.00029C11.2154 5.82429 11.2314 5.51235 11.0554 5.30441C11.0394 5.29641 11.0314 5.28841 11.0234 5.28041Z" fill="white"/>
<path d="M7.80801 8.87998C7.78401 8.87998 7.76801 8.87198 7.75201 8.85598L7.24813 8.35205C7.24054 8.34482 7.2345 8.33614 7.23038 8.32651C7.22625 8.31688 7.22412 8.30652 7.22412 8.29605C7.22412 8.28557 7.22625 8.27521 7.23038 8.26558C7.2345 8.25595 7.24054 8.24727 7.24813 8.24005L10.2636 5.22461C10.3165 5.17138 10.3794 5.12913 10.4488 5.10031C10.5181 5.07148 10.5924 5.05664 10.6675 5.05664C10.7426 5.05664 10.8169 5.07148 10.8862 5.10031C10.9556 5.12913 11.0185 5.17138 11.0714 5.22461C11.1247 5.27755 11.1669 5.34049 11.1957 5.40981C11.2246 5.47913 11.2394 5.55347 11.2394 5.62855C11.2394 5.70362 11.2246 5.77796 11.1957 5.84728C11.1669 5.9166 11.1247 5.97954 11.0714 6.03248L11.0474 6.05648L7.85601 8.85598C7.84801 8.87198 7.83201 8.87998 7.80801 8.87998ZM7.42407 8.29605L7.81601 8.68798L10.9514 5.93648C11.1274 5.79248 11.1434 5.52855 10.9994 5.35261C10.8555 5.17661 10.5915 5.16061 10.4156 5.30461C10.4076 5.31261 10.3996 5.32061 10.3836 5.32861L7.42407 8.29605Z" fill="#FF6C37"/>
<path d="M5.00046 11.7274C4.96852 11.7434 4.95252 11.7754 4.96046 11.8074L5.09646 12.3833C5.12846 12.4633 5.08046 12.5593 4.99246 12.5833C4.92852 12.6073 4.85652 12.5833 4.81652 12.5353L3.93665 11.6634L6.80815 8.79199L7.80002 8.80799L8.4719 9.47987C8.3119 9.6158 7.34408 10.5517 5.00046 11.7274Z" fill="white"/>
<path d="M4.93662 12.6632C4.87262 12.6632 4.80862 12.6392 4.76862 12.5912L3.89674 11.7194C3.8808 11.7034 3.8728 11.6874 3.8728 11.6634C3.8728 11.6394 3.8808 11.6234 3.8968 11.6074L6.76824 8.73591C6.78424 8.71991 6.80824 8.71191 6.82424 8.71191L7.81612 8.72791C7.84005 8.72791 7.85612 8.73591 7.87205 8.75191L8.54393 9.42379C8.55993 9.43979 8.56793 9.46379 8.56793 9.48779C8.56793 9.51179 8.55993 9.52779 8.53593 9.54379L8.47993 9.59173C7.63211 10.3356 6.4803 11.0795 5.04855 11.7914L5.18455 12.3593C5.20855 12.4632 5.16055 12.5752 5.06455 12.6312C5.01655 12.6552 4.97655 12.6632 4.93662 12.6632ZM4.05674 11.6635L4.88061 12.4793C4.90461 12.5193 4.95262 12.5353 4.99255 12.5113C5.03255 12.4873 5.04855 12.4393 5.02455 12.3993L4.88862 11.8234C4.87262 11.7514 4.90462 11.6874 4.96862 11.6555C6.3843 10.9436 7.52811 10.2077 8.36799 9.47985L7.77612 8.88798L6.85624 8.87198L4.05674 11.6635Z" fill="#FF6C37"/>
<path d="M3.25688 12.3512L3.94469 11.6633L4.96857 12.6871L3.33682 12.5751C3.26482 12.5671 3.21682 12.5031 3.22488 12.4311C3.22488 12.3991 3.23288 12.3671 3.25682 12.3511" fill="white"/>
<path d="M4.9686 12.7591L3.32885 12.6471C3.20885 12.6391 3.12885 12.5351 3.13691 12.4151C3.14491 12.3671 3.16091 12.3192 3.20091 12.2872L3.88879 11.5993C3.89601 11.5917 3.90469 11.5857 3.91431 11.5816C3.92393 11.5775 3.93429 11.5753 3.94475 11.5753C3.95522 11.5753 3.96558 11.5775 3.9752 11.5816C3.98482 11.5857 3.9935 11.5917 4.00072 11.5993L5.02454 12.6231C5.04854 12.6471 5.05654 12.6791 5.04054 12.7111C5.02454 12.7431 5.00056 12.7591 4.9686 12.7591ZM3.94472 11.7753L3.31285 12.4072C3.28885 12.4231 3.28885 12.4631 3.31285 12.4791C3.32085 12.4871 3.32885 12.4951 3.34485 12.4951L4.7606 12.5911L3.94472 11.7753ZM6.52829 9.15976C6.48029 9.15976 6.44829 9.11976 6.44829 9.07976C6.44829 9.05576 6.45629 9.03976 6.47229 9.02376L7.24816 8.24789C7.25538 8.2403 7.26407 8.23426 7.2737 8.23013C7.28332 8.226 7.29369 8.22388 7.30416 8.22388C7.31463 8.22388 7.325 8.226 7.33463 8.23013C7.34425 8.23426 7.35294 8.2403 7.36016 8.24789L7.86404 8.75182C7.88804 8.77582 7.89604 8.79982 7.88804 8.83182C7.88004 8.85582 7.85604 8.87982 7.82404 8.88782L6.54429 9.1597L6.52829 9.15976ZM7.30416 8.41589L6.77622 8.94376L7.6401 8.75982L7.30416 8.41589Z" fill="#FF6C37"/>
<path d="M7.80001 8.80795L6.9202 8.99989C6.8562 9.01589 6.7922 8.97589 6.7762 8.91189C6.7682 8.87189 6.7762 8.83189 6.8082 8.79995L7.29614 8.31201L7.80001 8.80795Z" fill="white"/>
<path d="M6.90423 9.07985C6.8779 9.0801 6.85178 9.0751 6.8274 9.06514C6.80302 9.05517 6.78088 9.04045 6.76225 9.02183C6.74363 9.00321 6.72891 8.98106 6.71895 8.95668C6.70898 8.9323 6.70398 8.90618 6.70423 8.87985C6.70423 8.82391 6.72823 8.77591 6.76023 8.73591L7.24817 8.24797C7.25539 8.24039 7.26408 8.23435 7.27371 8.23022C7.28333 8.22609 7.2937 8.22397 7.30417 8.22397C7.31464 8.22397 7.32501 8.22609 7.33464 8.23022C7.34426 8.23435 7.35295 8.24039 7.36017 8.24797L7.86405 8.75191C7.88805 8.77591 7.89605 8.79991 7.88805 8.83191C7.88005 8.85591 7.85605 8.87991 7.82405 8.88791L6.94423 9.07985H6.90423ZM7.30417 8.41597L6.87223 8.84785C6.85623 8.86391 6.85623 8.87991 6.86423 8.89585C6.87223 8.91185 6.88823 8.91985 6.91223 8.91985L7.64811 8.75985L7.30417 8.41597ZM12.7032 4.05672C12.6872 4.00879 12.6312 3.98479 12.5832 4.00079C12.5352 4.01679 12.5112 4.07272 12.5272 4.12079C12.5272 4.12872 12.5352 4.13672 12.5352 4.14472C12.5832 4.24072 12.5672 4.36072 12.5032 4.44866C12.4712 4.48866 12.4792 4.54466 12.5112 4.57666C12.5512 4.60866 12.6072 4.60066 12.6392 4.56066C12.7592 4.40866 12.7832 4.21672 12.7032 4.05672Z" fill="#FF6C37"/>
</svg>
