<svg width="16" height="16" viewBox="0 0 16 16" fill="none" xmlns="http://www.w3.org/2000/svg">
<path d="M11.7261 11.5139C11.8242 10.6973 11.7948 10.5774 12.4031 10.7098L12.5575 10.7233C13.0252 10.7446 13.6371 10.6481 13.9966 10.4811C14.7705 10.1219 15.2292 9.52256 14.4663 9.67994C12.7258 10.0391 12.6062 9.44969 12.6062 9.44969C14.4441 6.72281 15.2123 3.26119 14.5491 2.41381C12.7403 0.102686 9.60947 1.19556 9.55709 1.22381L9.54034 1.22694C9.19647 1.15556 8.81159 1.11294 8.37922 1.10594C7.59159 1.09294 6.99397 1.31244 6.54059 1.65619C6.54059 1.65619 0.955219 -0.644939 1.21509 4.55006C1.27034 5.65519 2.79909 12.9123 4.62259 10.7203C5.28909 9.91881 5.93309 9.24106 5.93309 9.24106C6.25284 9.45344 6.63584 9.56194 7.03734 9.52294L7.06847 9.49644C7.05872 9.59594 7.06297 9.69331 7.08084 9.80856C6.61122 10.3334 6.74922 10.4256 5.81009 10.6188C4.85984 10.8146 5.41809 11.1632 5.78247 11.2543C6.22434 11.3648 7.24647 11.5213 7.93722 10.5546L7.90972 10.6648C8.09397 10.8123 8.08159 11.7244 8.10759 12.3761C8.13372 13.0278 8.17734 13.6359 8.31022 13.9946C8.44309 14.3532 8.59984 15.2766 9.83409 15.0121C10.8656 14.7916 11.6542 14.4734 11.7261 11.5139Z" fill="black"/>
<path d="M9.43219 15.657C8.88632 15.657 8.53082 15.4459 8.31494 15.242C7.98907 14.9345 7.85982 14.5384 7.78257 14.3017L7.74919 14.203C7.59369 13.7832 7.54094 13.1789 7.50969 12.4006C7.50494 12.2837 7.50169 12.1634 7.49807 12.0357C7.49544 11.9424 7.49219 11.8252 7.48744 11.7027C7.29078 11.7965 7.08203 11.8625 6.86719 11.8987C6.48232 11.9645 6.06857 11.9432 5.63719 11.8354C5.33282 11.7592 5.01657 11.6015 4.83632 11.3579C4.31094 11.818 3.80982 11.7556 3.53682 11.6645C3.05519 11.5039 2.62419 11.0525 2.21907 10.2849C1.93044 9.73798 1.65132 9.02548 1.38932 8.16698C0.933066 6.67198 0.643191 5.09735 0.617441 4.58035C0.536441 2.96223 0.972066 1.80498 1.91194 1.1411C3.39457 0.0938516 5.64094 0.709727 6.45994 0.989352C7.01019 0.657727 7.65757 0.496352 8.38907 0.507977C8.78194 0.514352 9.15607 0.548852 9.50357 0.610852C9.86607 0.496852 10.5821 0.333227 11.4017 0.343477C12.9118 0.361477 14.1632 0.949977 15.0203 2.04535C15.6321 2.82685 15.3296 4.46798 15.0949 5.37673C14.7647 6.65498 14.1861 8.01448 13.4753 9.19798C13.6683 9.19935 13.9479 9.17623 14.3454 9.0941C15.1297 8.93223 15.3591 9.35273 15.4213 9.54098C15.6707 10.2962 14.5867 10.867 14.2486 11.024C13.8153 11.2251 13.1089 11.3476 12.5304 11.3211L12.5052 11.3195L12.3532 11.3061L12.3382 11.4329L12.3237 11.5567C12.2848 13.0566 12.0706 14.0065 11.6297 14.6341C11.1676 15.2921 10.5253 15.4765 9.95957 15.5977C9.76657 15.639 9.59119 15.657 9.43219 15.657ZM8.28344 10.1981C8.63582 10.4801 8.66669 11.0107 8.69432 12.0024C8.69782 12.1261 8.70107 12.2432 8.70544 12.3526C8.71869 12.6839 8.74982 13.4595 8.87132 13.7872C8.88844 13.8336 8.90382 13.8806 8.92007 13.9305C9.05544 14.345 9.12332 14.5529 9.70869 14.4277C10.2001 14.3224 10.4527 14.2279 10.6504 13.9464C10.9378 13.5371 11.0986 12.7139 11.1281 11.4995L11.7259 11.514L11.1322 11.4427L11.1497 11.2945C11.2066 10.8057 11.2476 10.4527 11.5742 10.2192C11.8363 10.032 12.1349 10.0501 12.3728 10.093C12.1114 9.89548 12.0392 9.66385 12.0199 9.56885L11.9701 9.32323L12.1102 9.11535C12.9173 7.91785 13.5828 6.4461 13.9363 5.07735C14.2996 3.67098 14.1888 2.9241 14.0781 2.78285C12.6119 0.909477 10.0696 1.68298 9.80407 1.77073L9.75919 1.79498L9.53419 1.83685L9.41894 1.81298C9.10119 1.74698 8.74819 1.71048 8.36982 1.70435C7.77532 1.69435 7.29569 1.83485 6.90244 2.13323L6.62957 2.3401L6.31294 2.20973C5.63644 1.9331 3.64944 1.37698 2.60094 2.1196C2.01894 2.53185 1.75382 3.3396 1.81282 4.52048C1.83232 4.91035 2.09719 6.38623 2.53419 7.8176C3.13807 9.79573 3.68682 10.4529 3.91594 10.5292C3.95594 10.5427 4.05969 10.4621 4.16294 10.3381C4.59346 9.82204 5.03924 9.3189 5.49969 8.82935L5.84594 8.46498L6.26457 8.7431C6.43332 8.85523 6.61944 8.91885 6.81057 8.93085L7.80894 8.07935L7.66432 9.55535C7.66107 9.58848 7.65944 9.6336 7.67244 9.71735L7.71594 9.9971L7.52719 10.2081L7.50544 10.2326L8.05394 10.4857L8.28344 10.1981Z" fill="black"/>
<path d="M14.4663 9.68005C12.7257 10.0392 12.6061 9.4498 12.6061 9.4498C14.444 6.7228 15.2122 3.26105 14.5492 2.41393C12.7405 0.102928 9.60934 1.1958 9.55709 1.22418L9.54022 1.22718C9.19634 1.1558 8.81147 1.1133 8.37884 1.1063C7.59122 1.09343 6.99384 1.3128 6.54047 1.65655C6.54047 1.65655 0.954969 -0.644447 1.21472 4.55043C1.26997 5.65568 2.79872 12.9128 4.62222 10.7208C5.28872 9.9193 5.93259 9.24155 5.93259 9.24155C6.25247 9.45393 6.63534 9.56243 7.03672 9.52343L7.06797 9.49693C7.05822 9.59643 7.06272 9.6938 7.08047 9.80905C6.61072 10.3339 6.74872 10.4261 5.80959 10.6193C4.85934 10.8151 5.41759 11.1637 5.78209 11.2548C6.22384 11.3653 7.24609 11.5218 7.93672 10.5551L7.90909 10.6653C8.09322 10.8128 8.22247 11.6243 8.20084 12.3599C8.17922 13.0956 8.16459 13.6007 8.30972 13.9952C8.45472 14.3897 8.59922 15.2772 9.83372 15.0127C10.8652 14.7917 11.3997 14.2188 11.4742 13.2633C11.527 12.5839 11.6463 12.6844 11.654 12.0771L11.7498 11.7896C11.8603 10.8687 11.7673 10.5717 12.403 10.7098L12.5573 10.7233C13.0251 10.7446 13.6372 10.6481 13.9966 10.4811C14.7703 10.1222 15.2292 9.52268 14.4663 9.68005Z" fill="#336791"/>
<path d="M9.49462 15.2884C8.46562 15.2884 8.13962 14.4736 8.00625 14.1403C7.811 13.6519 7.76887 11.7567 7.81237 10.2024C7.81302 10.1762 7.81884 10.1504 7.82951 10.1265C7.84018 10.1025 7.85549 10.0809 7.87454 10.0629C7.8936 10.0449 7.91603 10.0308 7.94054 10.0215C7.96505 10.0122 7.99116 10.0079 8.01737 10.0087C8.04355 10.0094 8.06933 10.0153 8.09324 10.026C8.11715 10.0366 8.13872 10.0519 8.15672 10.071C8.17471 10.09 8.18878 10.1124 8.19812 10.1369C8.20745 10.1613 8.21187 10.1874 8.21112 10.2136C8.161 12.0062 8.23212 13.6307 8.37662 13.9922C8.60212 14.5558 8.94412 15.0488 9.911 14.8417C10.8289 14.6448 11.1726 14.2968 11.3257 13.4092C11.4432 12.7281 11.6756 10.7903 11.7042 10.4079C11.7062 10.3818 11.7132 10.3563 11.725 10.3329C11.7368 10.3095 11.7531 10.2887 11.7729 10.2716C11.7928 10.2545 11.8158 10.2415 11.8407 10.2333C11.8656 10.2251 11.8919 10.222 11.918 10.2239C11.9707 10.2279 12.0197 10.2527 12.0542 10.2928C12.0887 10.3328 12.1059 10.385 12.102 10.4377C12.0721 10.8358 11.8409 12.7698 11.7189 13.4771C11.5381 14.5254 11.0707 15.0009 9.99462 15.2317C9.81175 15.2708 9.64562 15.2883 9.49462 15.2884ZM3.91512 11.3083C3.82518 11.308 3.73587 11.2933 3.65062 11.2646C2.98225 11.0416 2.34562 9.95307 1.75837 8.02895C1.31137 6.56432 1.02812 5.03557 1.00325 4.5387C0.92962 3.0657 1.30887 2.02357 2.13075 1.44145C3.75662 0.289448 6.49175 1.38645 6.60737 1.4337C6.65635 1.45371 6.69538 1.49235 6.71587 1.54113C6.73636 1.58992 6.73663 1.64484 6.71662 1.69382C6.69661 1.74281 6.65797 1.78183 6.60918 1.80232C6.5604 1.82281 6.50548 1.82308 6.4565 1.80307C6.43012 1.79232 3.80737 0.741573 2.3605 1.76745C1.65775 2.2657 1.33512 3.19145 1.4015 4.51882C1.42237 4.93745 1.687 6.42945 2.13975 7.91245C2.664 9.6302 3.26062 10.7141 3.77675 10.8862C3.85775 10.9132 4.10425 10.9953 4.45662 10.5716C4.86753 10.078 5.29387 9.59755 5.735 9.13082C5.77191 9.09401 5.82176 9.0731 5.87389 9.07258C5.92602 9.07206 5.97628 9.09197 6.01392 9.12804C6.05156 9.16411 6.07358 9.21348 6.07528 9.26558C6.07697 9.31768 6.05821 9.36838 6.02299 9.40682C6.01699 9.41307 5.41712 10.0402 4.76337 10.8267C4.45375 11.1991 4.157 11.3083 3.91512 11.3083ZM12.5937 9.6277C12.5576 9.62765 12.5221 9.61777 12.4911 9.59913C12.4602 9.58048 12.4348 9.55377 12.4179 9.52184C12.4009 9.48991 12.3929 9.45397 12.3948 9.41786C12.3967 9.38175 12.4083 9.34682 12.4285 9.31682C14.2864 6.55995 14.9385 3.22882 14.38 2.51507C13.677 1.61682 12.6844 1.1477 11.4295 1.12057C10.5004 1.10057 9.76187 1.33782 9.64112 1.3792L9.61075 1.39157C9.48937 1.4297 9.39625 1.3632 9.36112 1.28545C9.34109 1.2409 9.33806 1.19057 9.35259 1.14394C9.36712 1.09731 9.39821 1.05761 9.43999 1.03232C9.44574 1.02895 9.46399 1.0212 9.49362 1.01032C9.69874 0.935198 10.4485 0.710198 11.3771 0.720823C12.7656 0.735573 13.9126 1.27095 14.6939 2.26932C15.0635 2.7417 15.0644 3.82995 14.6962 5.2552C14.321 6.70832 13.6149 8.26995 12.7591 9.53982C12.7209 9.59695 12.6579 9.6277 12.5937 9.6277ZM12.6887 10.9039C12.3715 10.9039 12.0871 10.8592 11.9169 10.7572C11.7419 10.6523 11.7085 10.5098 11.7041 10.4342C11.6564 9.59545 12.1191 9.44945 12.3551 9.38282C12.3222 9.33307 12.2755 9.27457 12.2271 9.2142C12.0895 9.0422 11.901 8.8067 11.7557 8.45445C11.733 8.39945 11.6617 8.27157 11.5792 8.12345C11.1319 7.3212 10.201 5.65182 10.799 4.79695C11.0757 4.40132 11.6269 4.24557 12.4389 4.33245C12.2 3.6047 11.0625 1.3282 8.36337 1.28395C7.55162 1.27045 6.88587 1.52007 6.38562 2.0252C5.26562 3.15632 5.30612 5.20295 5.30675 5.22345C5.30743 5.24963 5.30296 5.27569 5.29358 5.30015C5.2842 5.3246 5.27009 5.34696 5.25206 5.36596C5.23404 5.38497 5.21244 5.40023 5.18852 5.41089C5.16459 5.42154 5.1388 5.42738 5.11262 5.42807C5.08644 5.42876 5.06038 5.42429 5.03592 5.41491C5.01147 5.40552 4.9891 5.39142 4.9701 5.37339C4.9511 5.35536 4.93584 5.33377 4.92518 5.30985C4.91452 5.28592 4.90868 5.26013 4.908 5.23395C4.9055 5.14307 4.86375 2.99532 6.10225 1.74445C6.68187 1.15907 7.44487 0.870073 8.37 0.885198C10.0967 0.913573 11.2082 1.79145 11.8365 2.52282C12.5214 3.31995 12.8571 4.1992 12.8847 4.4927C12.9054 4.71095 12.7487 4.75457 12.7171 4.76107L12.6451 4.7627C11.8482 4.63507 11.337 4.7237 11.1256 5.0257C10.6707 5.67582 11.5514 7.25495 11.9274 7.92932C12.0234 8.10132 12.0926 8.2257 12.1244 8.30245C12.2479 8.60195 12.409 8.8032 12.5384 8.96495C12.6522 9.1072 12.7509 9.23057 12.7861 9.37532C12.8025 9.40407 13.0349 9.74782 14.4137 9.4632C14.7594 9.39195 14.9666 9.45282 15.03 9.64445C15.1546 10.0213 14.4554 10.4609 14.0682 10.6407C13.7214 10.8019 13.1677 10.9039 12.6887 10.9039ZM12.1017 10.4013C12.1455 10.4454 12.3644 10.5216 12.8176 10.5021C13.2206 10.4848 13.6456 10.3972 13.9006 10.2788C14.2267 10.1273 14.4445 9.95795 14.5572 9.84232L14.4947 9.85382C13.6131 10.0358 12.9895 10.0116 12.6412 9.7817C12.6178 9.76627 12.5953 9.74953 12.5737 9.73157C12.536 9.74645 12.5011 9.7562 12.4762 9.7632C12.2787 9.81857 12.0745 9.87595 12.1017 10.4013ZM6.4065 11.5157C6.1875 11.5157 5.957 11.4858 5.72162 11.4269C5.47775 11.3659 5.06662 11.1823 5.07287 10.8807C5.08 10.5423 5.57212 10.4408 5.75737 10.4027C6.42662 10.2648 6.47025 10.2096 6.67937 9.94395C6.74037 9.86657 6.81625 9.7702 6.91975 9.6547C7.07337 9.4827 7.24125 9.39557 7.41875 9.39557C7.54237 9.39557 7.64375 9.43745 7.71075 9.46532C7.92425 9.55382 8.10237 9.76782 8.17562 10.0237C8.24175 10.2546 8.21012 10.4768 8.08687 10.6494C7.68225 11.2161 7.10112 11.5157 6.4065 11.5157ZM5.50375 10.8978C5.56387 10.9443 5.68437 11.0064 5.8185 11.0399C6.02237 11.0909 6.22012 11.1168 6.40662 11.1168C6.97487 11.1168 7.43112 10.8816 7.7625 10.4176C7.83162 10.3208 7.81087 10.1979 7.79237 10.1333C7.75362 9.99795 7.65737 9.87482 7.55825 9.8337C7.5045 9.81145 7.45987 9.79445 7.41887 9.79445C7.39687 9.79445 7.32987 9.79445 7.21712 9.92057C7.1393 10.0081 7.06451 10.0982 6.99287 10.1908C6.73237 10.5216 6.613 10.6338 5.838 10.7934C5.64887 10.8322 5.55187 10.8717 5.50375 10.8978ZM7.03737 9.97782C6.98976 9.97775 6.94374 9.96064 6.90763 9.92961C6.87153 9.89857 6.84771 9.85564 6.8405 9.80857C6.83549 9.77547 6.83215 9.74214 6.8305 9.7087C6.3225 9.6992 5.83237 9.4812 5.46025 9.09295C4.98975 8.60207 4.77562 7.92195 4.87287 7.22707C4.9785 6.47245 4.939 5.80632 4.91775 5.44845C4.91187 5.34895 4.90762 5.27707 4.90787 5.22732C4.90825 5.1642 4.9095 4.99682 5.469 4.7132C5.668 4.61232 6.067 4.43632 6.50287 4.3912C7.225 4.31657 7.701 4.6382 7.8435 5.29695C8.22812 7.07545 7.874 7.86207 7.61537 8.43657C7.56725 8.54357 7.52175 8.64457 7.48537 8.74245L7.45325 8.8287C7.31662 9.19507 7.1985 9.51157 7.23475 9.74795C7.23873 9.77384 7.23757 9.80025 7.23133 9.82569C7.2251 9.85113 7.21391 9.8751 7.19842 9.89621C7.18292 9.91733 7.16341 9.93518 7.14102 9.94876C7.11862 9.96233 7.09376 9.97136 7.06787 9.97532L7.03737 9.97782ZM5.308 5.28257L5.31575 5.42495C5.33775 5.7967 5.37875 6.48845 5.26775 7.28245C5.18762 7.85557 5.36262 8.41495 5.74812 8.81695C6.05275 9.1347 6.45362 9.31007 6.86562 9.31007H6.87412C6.92025 9.1157 6.99687 8.91045 7.07937 8.68932L7.11125 8.60357C7.15237 8.49307 7.2005 8.38607 7.2515 8.27282C7.50037 7.71982 7.81025 7.03145 7.45337 5.38132C7.38275 5.05445 7.21137 4.86532 6.92975 4.80295C6.35125 4.6752 5.48912 5.11032 5.308 5.28257ZM6.51175 5.19795C6.50175 5.26845 6.64087 5.4567 6.82237 5.48182C7.0035 5.5072 7.1585 5.35995 7.16837 5.28945C7.17825 5.21895 7.03925 5.1412 6.85775 5.11595C6.67625 5.0907 6.52137 5.12745 6.51175 5.19795ZM6.864 5.5512L6.81312 5.5477C6.70062 5.53207 6.58687 5.4612 6.509 5.35795C6.48162 5.3217 6.437 5.25145 6.44587 5.1887C6.4585 5.0967 6.57075 5.04157 6.74587 5.04157C6.785 5.04157 6.82574 5.04445 6.86674 5.0502C6.96249 5.06345 7.05137 5.09107 7.117 5.1277C7.23075 5.1912 7.23912 5.26207 7.234 5.2987C7.22 5.40032 7.05837 5.5512 6.864 5.5512ZM6.57787 5.2097C6.5835 5.2532 6.69125 5.3967 6.8315 5.41607L6.86412 5.41832C6.99362 5.41832 7.09037 5.31645 7.10175 5.28307C7.08975 5.26032 7.0065 5.20382 6.84862 5.18182C6.81462 5.17702 6.78033 5.17455 6.746 5.17445C6.6445 5.17445 6.59062 5.19732 6.57787 5.2097ZM12.0285 5.05407C12.0384 5.12457 11.8994 5.31282 11.718 5.33807C11.5367 5.36332 11.3816 5.2162 11.3716 5.1457C11.3621 5.0752 11.5011 4.99732 11.6824 4.9722C11.8636 4.94682 12.0185 4.9837 12.0285 5.05407ZM11.6761 5.37407C11.5016 5.37407 11.351 5.23832 11.3386 5.1502C11.3242 5.04445 11.4984 4.96407 11.6776 4.9392C11.7171 4.9337 11.7562 4.93095 11.7939 4.93095C11.9486 4.93095 12.0511 4.97632 12.0614 5.04957C12.068 5.09695 12.0316 5.17007 11.969 5.23607C11.9276 5.27945 11.8407 5.35457 11.7224 5.37095L11.6761 5.37407ZM11.794 4.99745C11.7593 4.99745 11.7237 4.99999 11.687 5.00507C11.5069 5.0302 11.3994 5.10245 11.4046 5.1412C11.4106 5.18382 11.5256 5.3077 11.6762 5.3077L11.7134 5.30507C11.8117 5.29145 11.8856 5.2272 11.9209 5.1902C11.9762 5.13207 11.9982 5.07732 11.9956 5.0587C11.9921 5.03395 11.9256 4.99745 11.794 4.99745ZM12.2896 9.10282C12.2535 9.10284 12.218 9.09304 12.187 9.07445C12.156 9.05587 12.1307 9.02921 12.1137 8.99732C12.0967 8.96544 12.0887 8.92953 12.0905 8.89344C12.0924 8.85735 12.104 8.82244 12.1241 8.79245C12.5489 8.15807 12.4711 7.5112 12.396 6.88557C12.3639 6.61907 12.3309 6.34345 12.3394 6.07895C12.3481 5.80682 12.3827 5.58232 12.4161 5.3652C12.4557 5.10795 12.4932 4.86495 12.4777 4.57645C12.4763 4.5503 12.4801 4.52413 12.4888 4.49943C12.4975 4.47473 12.511 4.45199 12.5285 4.4325C12.546 4.41301 12.5671 4.39716 12.5907 4.38584C12.6144 4.37453 12.64 4.36798 12.6661 4.36657C12.6923 4.36516 12.7184 4.36891 12.7431 4.37762C12.7678 4.38632 12.7906 4.3998 12.8101 4.41729C12.8494 4.45262 12.8731 4.50214 12.876 4.55495C12.8937 4.8847 12.8514 5.1597 12.8104 5.42582C12.7787 5.6312 12.746 5.84357 12.7381 6.0917C12.7305 6.32595 12.7604 6.5747 12.792 6.83795C12.872 7.5032 12.9626 8.2572 12.4556 9.01432C12.4373 9.04156 12.4126 9.06388 12.3837 9.07931C12.3547 9.09474 12.3224 9.10282 12.2896 9.10282Z" fill="white"/>
</svg>
