<svg width="16" height="16" viewBox="0 0 16 16" fill="none" xmlns="http://www.w3.org/2000/svg">
<path d="M8.30717 0.00170325C8.16302 -0.00778433 8.01904 0.0224964 7.89093 0.089242C7.76281 0.155988 7.65549 0.256635 7.58067 0.380203L1.59692 10.1392C1.51897 10.2663 1.47821 10.4127 1.47927 10.5618C1.48033 10.7109 1.52317 10.8567 1.60292 10.9827L4.54892 15.631C4.6424 15.7774 4.78109 15.8894 4.94396 15.9499C5.10682 16.0104 5.28498 16.0162 5.45142 15.9663L13.9529 13.4155C14.0621 13.3828 14.163 13.327 14.2488 13.252C14.3346 13.1769 14.4033 13.0844 14.4502 12.9805C14.4971 12.8766 14.5212 12.7639 14.5208 12.6499C14.5204 12.5359 14.4956 12.4234 14.4479 12.3198L8.98292 0.463578C8.92346 0.332106 8.82902 0.219496 8.70992 0.138044C8.59082 0.0565918 8.45163 0.00942842 8.30754 0.00170325H8.30717ZM8.53154 2.99545C8.5951 2.9879 8.65938 3.00131 8.71462 3.03364C8.76985 3.06597 8.81301 3.11546 8.83754 3.17458L12.6075 11.8976C12.6243 11.9363 12.6327 11.9782 12.6321 12.0205C12.6315 12.0627 12.622 12.1044 12.6041 12.1426C12.5863 12.1809 12.5605 12.215 12.5285 12.2426C12.4965 12.2702 12.459 12.2907 12.4185 12.3027L6.54404 14.0557C6.49468 14.0704 6.44236 14.072 6.39217 14.0605C6.34198 14.049 6.29562 14.0247 6.25759 13.99C6.21955 13.9553 6.19114 13.9113 6.1751 13.8624C6.15906 13.8134 6.15594 13.7612 6.16604 13.7107L8.26979 3.2342C8.28152 3.17125 8.31351 3.11385 8.36087 3.07075C8.40823 3.02765 8.46839 3.00121 8.53217 2.99545H8.53154Z" fill="#2D3748"/>
</svg>
