<svg width="16" height="16" viewBox="0 0 16 16" fill="none" xmlns="http://www.w3.org/2000/svg">
<path d="M7.68006 16C6.32215 16 5.01986 15.4606 4.05967 14.5004C3.09949 13.5402 2.56006 12.2379 2.56006 10.88C2.56006 9.52209 3.09949 8.2198 4.05967 7.25961C5.01986 6.29943 6.32215 5.76 7.68006 5.76V16ZM7.68006 0V5.12H2.56006V0H7.68006ZM10.8801 5.12C10.2011 5.12 9.54996 4.85029 9.06987 4.37019C8.58977 3.8901 8.32006 3.23895 8.32006 2.56C8.32006 1.88105 8.58977 1.2299 9.06987 0.749807C9.54996 0.269714 10.2011 0 10.8801 0C11.559 0 12.2102 0.269714 12.6903 0.749807C13.1703 1.2299 13.4401 1.88105 13.4401 2.56C13.4401 3.23895 13.1703 3.8901 12.6903 4.37019C12.2102 4.85029 11.559 5.12 10.8801 5.12Z" fill="black"/>
</svg>
