<svg width="16" height="16" viewBox="0 0 16 16" fill="none" xmlns="http://www.w3.org/2000/svg">
<rect width="16" height="16" rx="2" fill="#EC5990"/>
<path d="M7.38751 10.674H4.90301C4.88382 10.6728 4.8646 10.6756 4.84653 10.6822C4.82846 10.6887 4.81192 10.6989 4.79793 10.7121C4.78394 10.7253 4.77279 10.7412 4.76517 10.7588C4.75755 10.7765 4.75362 10.7955 4.75362 10.8147C4.75362 10.834 4.75755 10.853 4.76517 10.8706C4.77279 10.8883 4.78394 10.9042 4.79793 10.9174C4.81192 10.9305 4.82846 10.9407 4.84653 10.9473C4.8646 10.9538 4.88382 10.9566 4.90301 10.9555H7.38801C7.4072 10.9566 7.42642 10.9538 7.44449 10.9473C7.46256 10.9407 7.4791 10.9305 7.49309 10.9174C7.50708 10.9042 7.51823 10.8883 7.52585 10.8706C7.53347 10.853 7.5374 10.834 7.5374 10.8147C7.5374 10.7955 7.53347 10.7765 7.52585 10.7588C7.51823 10.7412 7.50708 10.7253 7.49309 10.7121C7.4791 10.6989 7.46256 10.6887 7.44449 10.6822C7.42642 10.6756 7.4072 10.6728 7.38801 10.674M11.048 10.674H8.56351C8.54432 10.6728 8.5251 10.6756 8.50703 10.6822C8.48896 10.6887 8.47242 10.6989 8.45843 10.7121C8.44444 10.7253 8.43329 10.7412 8.42567 10.7588C8.41805 10.7765 8.41412 10.7955 8.41412 10.8147C8.41412 10.834 8.41805 10.853 8.42567 10.8706C8.43329 10.8883 8.44444 10.9042 8.45843 10.9174C8.47242 10.9305 8.48896 10.9407 8.50703 10.9473C8.5251 10.9538 8.54432 10.9566 8.56351 10.9555H11.048C11.0839 10.9533 11.1176 10.9376 11.1422 10.9114C11.1669 10.8853 11.1806 10.8507 11.1806 10.8147C11.1806 10.7788 11.1669 10.7442 11.1422 10.718C11.1176 10.6919 11.0839 10.6761 11.048 10.674ZM7.38101 7.43649H4.90351C4.88432 7.43534 4.8651 7.43813 4.84703 7.44469C4.82896 7.45125 4.81242 7.46143 4.79843 7.47461C4.78444 7.48779 4.77329 7.5037 4.76567 7.52134C4.75805 7.53899 4.75412 7.55801 4.75412 7.57724C4.75412 7.59646 4.75805 7.61548 4.76567 7.63313C4.77329 7.65078 4.78444 7.66668 4.79843 7.67986C4.81242 7.69304 4.82896 7.70323 4.84703 7.70978C4.8651 7.71634 4.88432 7.71913 4.90351 7.71799H7.38051C7.3997 7.71913 7.41892 7.71634 7.43699 7.70978C7.45506 7.70323 7.4716 7.69304 7.48559 7.67986C7.49958 7.66668 7.51073 7.65078 7.51835 7.63313C7.52597 7.61548 7.5299 7.59646 7.5299 7.57724C7.5299 7.55801 7.52597 7.53899 7.51835 7.52134C7.51073 7.5037 7.49958 7.48779 7.48559 7.47461C7.4716 7.46143 7.45506 7.45125 7.43699 7.44469C7.41892 7.43813 7.3997 7.43534 7.38051 7.43649M11.0405 7.43649H8.56301C8.54382 7.43534 8.5246 7.43813 8.50653 7.44469C8.48846 7.45125 8.47192 7.46143 8.45793 7.47461C8.44394 7.48779 8.43279 7.5037 8.42517 7.52134C8.41755 7.53899 8.41362 7.55801 8.41362 7.57724C8.41362 7.59646 8.41755 7.61548 8.42517 7.63313C8.43279 7.65078 8.44394 7.66668 8.45793 7.67986C8.47192 7.69304 8.48846 7.70323 8.50653 7.70978C8.5246 7.71634 8.54382 7.71913 8.56301 7.71799H11.0405C11.0764 7.71585 11.1101 7.70009 11.1347 7.67393C11.1594 7.64776 11.1731 7.61318 11.1731 7.57724C11.1731 7.54129 11.1594 7.50671 11.1347 7.48055C11.1101 7.45439 11.0764 7.43863 11.0405 7.43649ZM11.3165 2.83649H9.14601C9.06846 2.59371 8.91575 2.38188 8.70994 2.23156C8.50413 2.08125 8.25587 2.00024 8.00101 2.00024C7.74615 2.00024 7.49789 2.08125 7.29208 2.23156C7.08627 2.38188 6.93356 2.59371 6.85601 2.83649H4.68301C4.2725 2.83662 3.87883 2.99975 3.58855 3.29003C3.29828 3.58031 3.13514 3.97397 3.13501 4.38449V12.4515C3.13501 12.8622 3.29815 13.256 3.58856 13.5464C3.87896 13.8368 4.27282 14 4.68351 14H11.3165C11.7271 13.9999 12.1209 13.8366 12.4111 13.5463C12.7014 13.2559 12.8645 12.8621 12.8645 12.4515V4.38499C12.8644 3.97447 12.7012 3.58081 12.411 3.29053C12.1207 3.00025 11.727 2.83712 11.3165 2.83699M6.96401 3.11849C6.99678 3.11929 7.02879 3.10857 7.05446 3.08819C7.08014 3.06782 7.09785 3.03908 7.10451 3.00699C7.14915 2.80161 7.26272 2.61769 7.42636 2.4858C7.59 2.35391 7.79384 2.28199 8.00401 2.28199C8.21418 2.28199 8.41803 2.35391 8.58166 2.4858C8.7453 2.61769 8.85887 2.80161 8.90351 3.00699C8.91019 3.03917 8.92797 3.06797 8.95375 3.08835C8.97953 3.10874 9.01166 3.11941 9.04451 3.11849H9.80151V4.03999C9.80138 4.15187 9.75688 4.25913 9.67776 4.33824C9.59865 4.41735 9.49139 4.46185 9.37951 4.46199H6.62751C6.51563 4.46185 6.40837 4.41735 6.32926 4.33824C6.25015 4.25913 6.20564 4.15187 6.20551 4.03999V3.11799L6.96401 3.11849ZM12.583 12.452C12.583 13.152 12.016 13.719 11.3165 13.719H4.68351C4.34757 13.7189 4.02543 13.5853 3.78793 13.3477C3.55043 13.1101 3.41701 12.7879 3.41701 12.452V4.38499C3.41701 4.04909 3.55044 3.72695 3.78796 3.48944C4.02547 3.25192 4.34761 3.11849 4.68351 3.11849H5.92351V4.03999C5.92351 4.42849 6.23851 4.74349 6.62751 4.74349H9.37251C9.76101 4.74349 10.076 4.42849 10.076 4.03999V3.11799H11.316C12.016 3.11799 12.583 3.68499 12.583 4.38449V12.452Z" fill="white"/>
</svg>
