<svg width="16" height="16" viewBox="0 0 16 16" fill="none" xmlns="http://www.w3.org/2000/svg">
<path d="M12.475 14.474L3.475 14.024C3.34677 14.0176 3.22593 13.9621 3.1375 13.869C3.04907 13.7759 2.99984 13.6524 3 13.524V3.45299C3 3.32904 3.04604 3.20951 3.12919 3.11758C3.21234 3.02565 3.32667 2.96789 3.45 2.95549L12.45 2.00299C12.5195 1.99601 12.5897 2.00366 12.656 2.02545C12.7224 2.04724 12.7834 2.08269 12.8352 2.12951C12.887 2.17633 12.9285 2.23349 12.9569 2.2973C12.9852 2.36111 12.9999 2.43016 13 2.49999V13.9745C12.9999 14.0422 12.9861 14.1092 12.9594 14.1715C12.9327 14.2337 12.8936 14.2899 12.8445 14.3365C12.7954 14.3832 12.7373 14.4194 12.6738 14.4429C12.6103 14.4665 12.5427 14.4774 12.475 14.474Z" fill="#FF4081"/>
<path d="M9.99999 4.25997L10.095 2.13896L11.9195 2.00146L11.9995 4.18647C11.9999 4.22351 11.9856 4.2592 11.9597 4.28573C11.9339 4.31225 11.8985 4.32744 11.8615 4.32797C11.8275 4.32842 11.7944 4.31732 11.7675 4.29647L11.0615 3.75996L10.2275 4.37496C10.1972 4.39696 10.1596 4.40639 10.1225 4.40126C10.0854 4.39613 10.0517 4.37686 10.0285 4.34746C10.009 4.32254 9.99895 4.29157 9.99999 4.25997ZM8.93599 7.58346C8.93599 7.82696 10.66 7.70846 10.892 7.53646C10.892 5.87446 9.95699 4.99996 8.24299 4.99996C6.53249 4.99996 5.57049 5.88697 5.57049 7.21797C5.57049 9.53897 8.85099 9.58546 8.85099 10.851C8.86012 10.9289 8.85119 11.0078 8.8249 11.0817C8.79862 11.1556 8.75567 11.2224 8.6994 11.2771C8.64313 11.3317 8.57504 11.3726 8.5004 11.3967C8.42576 11.4208 8.34658 11.4274 8.26899 11.416C7.74549 11.416 7.53949 11.16 7.56249 10.295C7.56249 10.1075 5.57049 10.048 5.51199 10.295C5.35799 12.394 6.72499 13 8.29199 13C9.80949 13 11 12.225 11 10.829C11 8.34247 7.67349 8.40796 7.67349 7.17396C7.66882 7.09357 7.68219 7.01316 7.71262 6.9386C7.74304 6.86405 7.78976 6.79724 7.84934 6.74307C7.90892 6.6889 7.97987 6.64875 8.05698 6.62554C8.13409 6.60234 8.21541 6.59668 8.29499 6.60896C8.53399 6.60896 8.97199 6.64896 8.93599 7.58346Z" fill="#FAFAFA"/>
</svg>
