<svg width="16" height="16" viewBox="0 0 16 16" fill="none" xmlns="http://www.w3.org/2000/svg">
<path d="M8.06021 1.06265C7.82186 1.06111 7.58359 1.07175 7.34633 1.09452C7.11369 1.11693 6.88235 1.15118 6.65321 1.19715C6.09308 1.30975 5.54918 1.49174 5.03408 1.7389C4.73018 1.88462 4.43725 2.05219 4.15758 2.24027C3.78707 2.48955 3.44105 2.7734 3.12414 3.08802C2.72865 3.48077 2.38091 3.91885 2.08814 4.39315C1.9122 4.67872 1.75701 4.97657 1.62377 5.2844C1.48961 5.59465 1.37852 5.91437 1.29139 6.24096C1.14322 6.79724 1.06636 7.3701 1.06264 7.94577C1.0611 8.18638 1.07197 8.42691 1.09521 8.6664C1.16265 9.35955 1.33569 10.0383 1.60833 10.6791C1.87317 11.3008 2.22715 11.8805 2.65914 12.4C2.94388 12.7432 3.26048 13.0586 3.60471 13.3421C3.77639 13.4836 3.95471 13.617 4.13889 13.7417C4.41556 13.9291 4.70519 14.0967 5.00558 14.2431C5.40822 14.4393 5.82896 14.596 6.26189 14.711C6.59017 14.7981 6.92453 14.8604 7.26214 14.8975C7.48877 14.9223 7.71802 14.9358 7.94902 14.9374C8.42056 14.9406 8.89118 14.8954 9.35346 14.8023C9.58071 14.7565 9.80408 14.6994 10.023 14.6317C10.5659 14.4638 11.086 14.2298 11.5718 13.9351C12.0525 13.6441 12.4968 13.2967 12.8952 12.9004C13.0541 12.7426 13.2053 12.5773 13.3485 12.4051C13.6352 12.0605 13.8881 11.6891 14.1038 11.2961C14.212 11.0991 14.3103 10.8968 14.3986 10.6901C14.4874 10.4823 14.5656 10.2703 14.633 10.0547C14.7699 9.6174 14.8615 9.16715 14.9061 8.71108C14.9288 8.47831 14.9391 8.24451 14.9373 8.01064C14.9417 7.54333 14.8974 7.07683 14.8051 6.61871C14.7155 6.17351 14.5811 5.73854 14.4038 5.32046C14.2729 5.01115 14.1195 4.71185 13.9448 4.42496C13.829 4.23446 13.704 4.04996 13.5708 3.87183C13.2375 3.42681 12.8528 3.0227 12.4248 2.6679C12.0819 2.38354 11.713 2.13225 11.3228 1.9174C11.1269 1.80965 10.926 1.71135 10.7206 1.62283C10.4104 1.48907 10.0907 1.37825 9.76427 1.29127C9.20816 1.1434 8.63562 1.06658 8.06021 1.06265ZM5.59208 3.8754C5.68896 3.87627 5.78896 3.87846 5.89502 3.87846V4.75908C5.80771 4.76527 5.72771 4.7779 5.64821 4.77552C5.11196 4.75908 5.08421 4.94183 5.04508 5.38577C5.02064 5.66414 5.05446 5.94727 5.03539 6.22658C5.01558 6.50452 4.97839 6.78096 4.92414 7.05433C4.84671 7.45052 4.60321 7.74521 4.26564 7.99527C4.92089 8.42165 4.99546 9.08421 5.03796 9.75696C5.06089 10.1185 5.05039 10.4826 5.08708 10.8423C5.11564 11.1215 5.22427 11.1928 5.51258 11.2013C5.63146 11.2048 5.75046 11.2021 5.88758 11.2021V12.0638C5.03539 12.208 4.33339 11.966 4.16114 11.2456C4.10218 10.9807 4.06588 10.7113 4.05264 10.4402C4.03433 10.1532 4.06608 9.86302 4.04421 9.57658C3.98358 8.78833 3.88146 8.51921 3.12502 8.48196V7.50102C3.17928 7.48838 3.23422 7.47891 3.28958 7.47264C3.70427 7.45227 3.87908 7.32515 3.97183 6.91665C4.01405 6.68711 4.03897 6.45473 4.04639 6.22146C4.07927 5.77039 4.06764 5.31208 4.14283 4.86833C4.25146 4.22658 4.64983 3.91477 5.30783 3.8799C5.40152 3.8749 5.49521 3.87452 5.59208 3.8754ZM10.6874 3.8809C11.4192 3.90215 11.8999 4.27921 11.9536 5.08133C11.9814 5.4959 11.9773 5.9124 12.0038 6.32696C12.0154 6.5525 12.0492 6.77635 12.1046 6.99527C12.1958 7.33571 12.3732 7.45533 12.7316 7.47171C12.7903 7.47439 12.8487 7.48439 12.9292 7.49333V8.47402C12.8856 8.48835 12.8411 8.49902 12.7956 8.50602C12.3154 8.53589 12.0965 8.73296 12.048 9.21452C12.017 9.5219 12.0196 9.83277 11.9983 10.1413C11.9893 10.48 11.9585 10.8178 11.906 11.1525C11.7835 11.759 11.4048 12.0615 10.7791 12.0984C10.5778 12.1103 10.3751 12.1003 10.158 12.1003V11.2236C10.2748 11.2164 10.378 11.2065 10.4813 11.204C10.8551 11.1951 10.9873 11.0745 11.0056 10.7033C11.0259 10.2955 11.0346 9.88721 11.0529 9.47927C11.0793 8.88964 11.2409 8.36289 11.7902 7.99514C11.4758 7.77108 11.2235 7.49965 11.1581 7.13371C11.079 6.69008 11.0536 6.23683 11.011 5.78702C10.99 5.56215 10.991 5.33527 10.969 5.11064C10.9453 4.86808 10.7788 4.78415 10.558 4.77871C10.4315 4.77565 10.3045 4.77808 10.1428 4.77808V3.92215C10.3363 3.89002 10.5185 3.87596 10.6874 3.8809ZM6.06489 7.42433H6.07496C6.22542 7.42683 6.36873 7.48899 6.47337 7.59713C6.57801 7.70528 6.63541 7.85056 6.63296 8.00102C6.63281 8.07654 6.61726 8.15124 6.58725 8.22054C6.55725 8.28985 6.51342 8.3523 6.45845 8.40409C6.40349 8.45588 6.33853 8.4959 6.26756 8.52173C6.19659 8.54755 6.1211 8.55862 6.04571 8.55427C5.96994 8.55543 5.89472 8.54134 5.82451 8.51285C5.7543 8.48435 5.69054 8.44204 5.637 8.38841C5.58347 8.33479 5.54127 8.27095 5.5129 8.20069C5.48453 8.13043 5.47057 8.05518 5.47186 7.97942C5.47314 7.90366 5.48965 7.82894 5.52039 7.75968C5.55113 7.69042 5.59547 7.62806 5.6508 7.57628C5.70612 7.5245 5.77128 7.48438 5.84242 7.45828C5.91356 7.43219 5.98921 7.42061 6.06489 7.42433ZM8.01708 7.42433C8.35977 7.42171 8.58733 7.64371 8.58914 7.98246C8.59102 8.33027 8.37521 8.5529 8.03477 8.55433C7.68858 8.5559 7.46064 8.33683 7.45877 8.00014C7.454 7.92477 7.46504 7.84923 7.49118 7.77838C7.51732 7.70752 7.55798 7.64291 7.61055 7.58869C7.66313 7.53448 7.72646 7.49185 7.79648 7.46354C7.8665 7.43524 7.94166 7.42188 8.01714 7.42433H8.01708ZM10.005 7.42433C10.3203 7.4259 10.6 7.69246 10.583 7.99733C10.5653 8.32796 10.2764 8.60252 9.99177 8.55458H9.98739C9.91242 8.55468 9.83816 8.54001 9.76886 8.51141C9.69955 8.48281 9.63656 8.44083 9.58348 8.38789C9.5304 8.33494 9.48827 8.27205 9.45949 8.20282C9.43072 8.13359 9.41586 8.05937 9.41577 7.9844C9.42094 7.83243 9.4856 7.68858 9.59582 7.58384C9.70604 7.47909 9.85299 7.42177 10.005 7.42433Z" fill="#43A047"/>
</svg>
