<svg width="16" height="14" viewBox="0 0 16 14" fill="none" xmlns="http://www.w3.org/2000/svg">
<path d="M9.87381 8.67322L9.56694 9.19226C9.52149 9.26906 9.45608 9.33285 9.37728 9.3772C9.29848 9.42156 9.20908 9.44492 9.11806 9.44492H6.76694C6.67592 9.44492 6.58651 9.42156 6.50771 9.3772C6.42891 9.33285 6.3635 9.26906 6.31806 9.19226L6.01112 8.67322H9.87381ZM10.733 7.22026L10.1919 8.13538H5.69312L5.152 7.22026H10.733ZM10.2117 5.79945L10.7339 6.68242H5.15112L5.67325 5.79945H10.2117ZM9.118 4.4563C9.20902 4.4563 9.29844 4.47965 9.37725 4.52401C9.45607 4.56836 9.52149 4.63216 9.56694 4.70897L9.89369 5.2616H5.99131L6.31812 4.70897C6.36356 4.63217 6.42898 4.56838 6.50778 4.52402C6.58658 4.47967 6.67598 4.45631 6.767 4.4563H9.118Z" fill="#00435B"/>
<path d="M3.34519 4.21511C3.08475 2.98518 3.02882 2.04182 3.19719 1.35686C3.29732 0.949458 3.48032 0.61711 3.75869 0.377284C4.05257 0.124127 4.42407 -0.000107451 4.84157 -0.000107451C5.53019 -0.000107451 6.25419 0.305762 7.02782 0.886762C7.34344 1.12379 7.67094 1.40945 8.01107 1.74393C8.03819 1.71002 8.06875 1.67801 8.10288 1.64836C9.0645 0.81384 9.87413 0.295232 10.5666 0.095336C10.9784 -0.0236031 11.3649 -0.0349248 11.7169 0.0804838C12.0886 0.202223 12.3846 0.45404 12.5936 0.806658C12.9383 1.38863 13.0292 2.15334 12.9007 3.09761C12.8483 3.48248 12.7588 3.90169 12.6322 4.35596C12.6799 4.36156 12.7278 4.37191 12.7752 4.38719C13.9953 4.78101 14.8593 5.20442 15.3823 5.6884C15.6936 5.97631 15.8968 6.29685 15.9703 6.65172C16.0478 7.02625 15.9721 7.40187 15.7635 7.75425C15.4194 8.33543 14.7866 8.79372 13.8853 9.15674C13.5234 9.30253 13.1138 9.43455 12.6563 9.55331C12.6771 9.59921 12.6934 9.64796 12.7042 9.69909C12.9646 10.929 13.0205 11.8724 12.8522 12.5573C12.7521 12.9647 12.569 13.2971 12.2906 13.5369C11.9968 13.7901 11.6253 13.9143 11.2078 13.9143C10.5191 13.9143 9.79519 13.6084 9.02157 13.0274C8.70257 12.7879 8.37144 12.4987 8.02738 12.1596C7.99118 12.2147 7.94735 12.2647 7.89713 12.3082C6.9355 13.1428 6.12588 13.6613 5.43338 13.8613C5.02163 13.9802 4.63507 13.9916 4.28307 13.8761C3.91144 13.7544 3.61538 13.5026 3.40644 13.15C3.06169 12.568 2.97082 11.8033 3.09932 10.859C3.15363 10.4603 3.24782 10.0246 3.38169 9.55124C3.32833 9.54598 3.27572 9.53502 3.22482 9.51855C2.00475 9.12473 1.14075 8.70132 0.61769 8.21734C0.30644 7.92943 0.103253 7.60889 0.0297529 7.25402C-0.0477471 6.87949 0.0278779 6.50381 0.236503 6.15143C0.580628 5.57031 1.21338 5.11196 2.11475 4.749C2.48744 4.59883 2.91063 4.46334 3.38475 4.34184C3.36765 4.30085 3.35441 4.25843 3.34519 4.21511Z" fill="#002B3B"/>
<path d="M11.8529 9.82019C11.9112 9.81014 11.9711 9.8223 12.0204 9.85414C12.0697 9.88599 12.1045 9.93508 12.1176 9.99124L12.1191 9.99805L12.132 10.0635C12.5514 12.2108 12.256 13.2844 11.2457 13.2844C10.2574 13.2844 8.99924 12.3683 7.47124 10.536C7.4441 10.5034 7.42687 10.4641 7.42153 10.4224C7.41619 10.3808 7.42294 10.3386 7.44102 10.3005C7.45909 10.2624 7.48777 10.2301 7.5238 10.2071C7.55982 10.1841 7.60174 10.1714 7.6448 10.1704H7.65193L7.73243 10.171C8.37543 10.1744 9.00051 10.1526 9.60768 10.1055C10.3243 10.0499 11.0728 9.95479 11.8529 9.82019ZM4.91537 8.19704L4.91924 8.20344L4.95962 8.27204C5.28316 8.81986 5.62024 9.33983 5.97087 9.83194C6.38387 10.4114 6.84824 10.9981 7.36399 11.5919C7.40227 11.636 7.42163 11.6927 7.41803 11.7504C7.41444 11.808 7.38816 11.862 7.34468 11.9013L7.33887 11.9063L7.28699 11.9498C5.58032 13.374 4.47107 13.6583 3.95924 12.8027C3.4582 11.9653 3.63985 10.4426 4.50418 8.23466C4.51948 8.19554 4.54572 8.16138 4.57994 8.13604C4.61415 8.1107 4.65496 8.09519 4.69776 8.09127C4.74055 8.08736 4.78362 8.09519 4.82207 8.11389C4.86053 8.13258 4.89285 8.16139 4.91537 8.19704ZM12.7189 5.02854L12.7259 5.03079L12.7902 5.05234C14.8967 5.76606 15.6971 6.55036 15.1912 7.40525C14.6964 8.2414 13.2581 8.85017 10.8761 9.23158C10.8329 9.2385 10.7886 9.2333 10.7484 9.21658C10.7082 9.19986 10.6736 9.17232 10.6489 9.13718C10.6242 9.10204 10.6102 9.06076 10.6087 9.01818C10.6072 8.97559 10.6181 8.93347 10.6403 8.89674C10.9815 8.33155 11.2887 7.76917 11.5621 7.20962C11.8721 6.57503 12.1631 5.8939 12.4349 5.16623C12.4547 5.11334 12.4941 5.06961 12.5454 5.04374C12.5968 5.01786 12.6562 5.01172 12.7119 5.02653L12.7189 5.02854ZM5.27787 4.66923C5.30394 4.68414 5.32674 4.70391 5.34496 4.7274C5.36319 4.7509 5.37648 4.77766 5.38408 4.80616C5.39169 4.83466 5.39345 4.86434 5.38927 4.8935C5.3851 4.92267 5.37506 4.95075 5.35974 4.97613C5.01849 5.54128 4.7112 6.10366 4.43787 6.66325C4.12787 7.2978 3.83693 7.97893 3.56505 8.70664C3.54487 8.76068 3.50414 8.8051 3.45129 8.83072C3.39843 8.85635 3.33749 8.86122 3.28105 8.84433L3.27405 8.84208L3.2098 8.82047C1.10326 8.10679 0.302929 7.32251 0.808804 6.46762C1.30355 5.63147 2.74191 5.02268 5.12387 4.64123C5.17699 4.63271 5.23149 4.64263 5.27787 4.66923ZM12.0407 1.15407C12.5418 1.99151 12.3601 3.51423 11.4958 5.72221C11.4805 5.76133 11.4543 5.79549 11.42 5.82083C11.3858 5.84618 11.345 5.86168 11.3022 5.8656C11.2594 5.86951 11.2164 5.86168 11.1779 5.84299C11.1394 5.82429 11.1071 5.79549 11.0846 5.75983L11.0807 5.75344L11.0404 5.68483C10.7168 5.13701 10.3797 4.61704 10.0291 4.12493C9.61612 3.54545 9.15174 2.95879 8.63599 2.36495C8.59771 2.32088 8.57835 2.26413 8.58195 2.20651C8.58555 2.14889 8.61182 2.09484 8.6553 2.05561L8.66112 2.05056L8.71299 2.00704C10.4197 0.582891 11.5289 0.298569 12.0407 1.15407ZM4.84062 0.644531C5.82899 0.644531 7.08716 1.56066 8.61512 3.39291C8.64226 3.42548 8.65949 3.46481 8.66483 3.50643C8.67017 3.54805 8.66342 3.5903 8.64534 3.62837C8.62726 3.66645 8.59858 3.69882 8.56256 3.72181C8.52654 3.7448 8.48461 3.75749 8.44155 3.75844H8.43443L8.35393 3.75795C7.71097 3.75454 7.08591 3.77637 6.47874 3.82344C5.76199 3.87904 5.01355 3.97414 4.23343 4.10874C4.17521 4.11877 4.11525 4.10661 4.06599 4.07477C4.01672 4.04292 3.98193 3.99384 3.9688 3.9377L3.9673 3.93082L3.95437 3.86544C3.53495 1.71817 3.83037 0.644531 4.84062 0.644531Z" fill="#FF4154"/>
<path d="M6.95589 4.48438H8.92939C9.07118 4.48437 9.21046 4.52081 9.33316 4.59001C9.45586 4.65921 9.55763 4.75873 9.6282 4.87851L10.6191 6.56009C10.6892 6.67896 10.7261 6.81363 10.7261 6.95069C10.7261 7.08775 10.6892 7.22242 10.6191 7.34129L9.6282 9.02287C9.55763 9.14265 9.45586 9.24216 9.33316 9.31137C9.21046 9.38057 9.07118 9.41701 8.92939 9.417H6.95589C6.66726 9.417 6.4007 9.26665 6.25701 9.02287L5.2662 7.34129C5.19614 7.22242 5.15927 7.08775 5.15927 6.95069C5.15927 6.81363 5.19614 6.67896 5.2662 6.56009L6.25707 4.87851C6.32764 4.75872 6.42943 4.6592 6.55214 4.58999C6.67485 4.52079 6.81408 4.48436 6.95589 4.48438ZM8.62864 4.99191C8.91739 4.99191 9.18414 5.14244 9.3277 5.3864L10.0187 6.56045C10.0886 6.67924 10.1254 6.81377 10.1254 6.95069C10.1254 7.08761 10.0886 7.22214 10.0187 7.34092L9.3277 8.51498C9.25715 8.63484 9.15536 8.73444 9.0326 8.80371C8.90985 8.87297 8.7705 8.90943 8.62864 8.90941H7.25676C6.96801 8.90941 6.70126 8.75894 6.5577 8.51498L5.8667 7.34092C5.79678 7.22214 5.75999 7.08761 5.75999 6.95069C5.75999 6.81377 5.79678 6.67924 5.8667 6.56045L6.5577 5.3864C6.62824 5.26654 6.73003 5.16695 6.85277 5.09769C6.9755 5.02843 7.11485 4.99196 7.2567 4.99197L8.62864 4.99191ZM8.30445 5.54704H7.58095C7.43921 5.54702 7.29997 5.58342 7.1773 5.65257C7.05463 5.72172 6.95286 5.82116 6.88226 5.94086L6.51714 6.55972C6.44694 6.67868 6.40999 6.81349 6.40999 6.95069C6.40999 7.08789 6.44694 7.2227 6.51714 7.34165L6.88226 7.96058C6.95286 8.08028 7.05463 8.17972 7.1773 8.24887C7.29997 8.31801 7.43921 8.35442 7.58095 8.3544H8.30445C8.59295 8.3544 8.85945 8.20418 9.00314 7.96058L9.36826 7.34165C9.43846 7.2227 9.4754 7.08789 9.4754 6.95069C9.4754 6.81349 9.43846 6.67868 9.36826 6.55972L9.00314 5.9408C8.93254 5.8211 8.83077 5.72166 8.7081 5.65251C8.58542 5.58336 8.44619 5.54702 8.30445 5.54704ZM7.99232 6.07831C8.28057 6.07831 8.54689 6.22829 8.69064 6.47152L8.74245 6.55918C8.81283 6.67825 8.84988 6.81323 8.84988 6.95063C8.84988 7.08802 8.81283 7.22301 8.74245 7.34208L8.69064 7.42973C8.61999 7.54927 8.51825 7.64855 8.39565 7.71759C8.27305 7.78662 8.13394 7.82296 7.99232 7.82295H7.89307C7.75146 7.82296 7.61234 7.78662 7.48975 7.71759C7.36715 7.64855 7.2654 7.54927 7.19476 7.42973L7.14295 7.34208C7.07256 7.22301 7.03552 7.08802 7.03552 6.95063C7.03552 6.81323 7.07256 6.67825 7.14295 6.55918L7.19476 6.47152C7.2654 6.35199 7.36715 6.2527 7.48975 6.18367C7.61234 6.11463 7.75146 6.07829 7.89307 6.07831H7.99232ZM7.94282 6.60172C7.87988 6.60171 7.81805 6.61782 7.76353 6.64844C7.709 6.67906 7.66371 6.72312 7.6322 6.77618C7.60074 6.82921 7.58418 6.88938 7.58418 6.95063C7.58418 7.01188 7.60074 7.07204 7.6322 7.12508C7.66368 7.17815 7.70895 7.22222 7.76346 7.25286C7.81797 7.2835 7.87979 7.29963 7.94273 7.29963C8.00567 7.29963 8.06749 7.2835 8.122 7.25286C8.17651 7.22222 8.22178 7.17815 8.25326 7.12508C8.28472 7.07204 8.30128 7.01188 8.30128 6.95063C8.30128 6.88938 8.28472 6.82921 8.25326 6.77618C8.22176 6.72314 8.1765 6.67911 8.12201 6.64849C8.06753 6.61787 8.00573 6.60174 7.94282 6.60172ZM5.03601 6.95063H5.68101Z" fill="#FFD94C"/>
</svg>
