<svg width="16" height="16" viewBox="0 0 16 16" fill="none" xmlns="http://www.w3.org/2000/svg">
<path d="M14.6612 12.2625L8.27999 15.875V13.0612L12.25 10.875L14.6612 12.2625ZM15.0987 11.8675V4.31875L12.7637 5.66875V10.52L15.0975 11.8663L15.0987 11.8675ZM1.33875 12.2625L7.71375 15.8725V13.0612L3.7425 10.875L1.33875 12.2625ZM0.901245 11.8675V4.31875L3.23625 5.66875V10.52L0.901245 11.8675ZM1.175 3.83L7.72 0.125V2.845L3.52625 5.15125L3.4925 5.17L1.175 3.83ZM14.8225 3.83L8.27999 0.125V2.845L12.4737 5.15L12.5075 5.16875L14.825 3.83H14.8225Z" fill="#8ED6FB"/>
<path d="M7.72001 12.4213L3.79626 10.2625V5.99002L7.72001 8.25002V12.4213ZM8.28001 12.4213L12.2038 10.265V5.99002L8.28001 8.25002V12.4213ZM4.06251 5.50002L8.00001 3.33252L11.9375 5.50002L8.00001 7.77002L4.06251 5.50002Z" fill="#1C78C0"/>
</svg>
