<svg width="24" height="24" viewBox="0 0 24 24" fill="none" xmlns="http://www.w3.org/2000/svg">
<path d="M15.6982 2.58813C16.0923 1.91261 16.8985 1.66695 17.5986 1.96313L17.7373 2.02954L17.7441 2.03345C18.5032 2.45852 18.701 3.38238 18.3057 4.08521L18.2979 4.09888L18.2891 4.11255L17.4189 5.44751C18.1983 6.08991 18.8578 6.86758 19.3643 7.74438C19.8709 8.62159 20.2139 9.58178 20.3809 10.5784L21.9756 10.5002H22C22.3978 10.5002 22.7792 10.6584 23.0605 10.9397C23.3417 11.221 23.5 11.6025 23.5 12.0002C23.4999 12.3979 23.3418 12.7796 23.0605 13.0608C22.7793 13.342 22.3977 13.5002 22 13.5002H21.9883L21.9756 13.4993L20.3809 13.4211C20.2139 14.4179 19.871 15.3787 19.3643 16.2561C18.858 17.1326 18.198 17.9088 17.4189 18.551L18.2891 19.887L18.2979 19.9006L18.3057 19.9143C18.701 20.6171 18.5032 21.541 17.7441 21.9661L17.7373 21.97C17.008 22.3636 16.1186 22.132 15.6982 21.4114L15.6914 21.3997L15.6846 21.387L14.9609 19.9719C14.0135 20.3194 13.0115 20.4993 12 20.4993C10.9882 20.4993 9.98573 20.3196 9.03809 19.9719L8.31543 21.387L8.30859 21.3997L8.30176 21.4114C7.88139 22.132 6.99203 22.3636 6.2627 21.97L6.25586 21.9661C5.4968 21.541 5.299 20.6171 5.69434 19.9143L5.70215 19.9006L5.71094 19.887L6.58008 18.551C5.80128 17.9089 5.14192 17.1323 4.63574 16.2561C4.12894 15.3787 3.78507 14.418 3.61816 13.4211L2.02441 13.4993L2.01172 13.5002H2C1.60226 13.5002 1.22074 13.342 0.939453 13.0608C0.658232 12.7796 0.500094 12.3979 0.5 12.0002C0.5 11.6025 0.658259 11.221 0.939453 10.9397C1.22076 10.6584 1.60218 10.5002 2 10.5002H2.02441L3.61816 10.5784C3.78507 9.58172 4.12907 8.62164 4.63574 7.74438C5.14207 6.8678 5.80093 6.08981 6.58008 5.44751L5.71094 4.11255L5.70215 4.09888L5.69434 4.08521C5.299 3.38238 5.4968 2.45852 6.25586 2.03345L6.2627 2.02954C6.94634 1.6606 7.77099 1.84071 8.21777 2.45825L8.30176 2.58813L8.30859 2.59985L8.31543 2.61255L9.03809 4.02759C9.9857 3.67993 10.9882 3.50122 12 3.50122C13.0115 3.50122 14.0136 3.68014 14.9609 4.02759L15.6846 2.61255L15.6914 2.59985L15.6982 2.58813ZM12.6426 15.4377C12.4355 15.4764 12.2222 15.5002 12 15.5002C11.7775 15.5002 11.5639 15.4765 11.3564 15.4377L10.4238 17.2688C10.9211 17.418 11.4497 17.5002 12 17.5002C12.5499 17.5002 13.0782 17.4178 13.5752 17.2688L12.6426 15.4377ZM6.64648 13.2708C6.9008 14.3334 7.45882 15.2793 8.23047 16.0022L9.35938 14.2747C9.07176 13.952 8.84722 13.5787 8.70117 13.1682L6.64648 13.2708ZM15.2979 13.1682C15.1517 13.5788 14.9274 13.952 14.6396 14.2747L15.7676 16.0022C16.5519 15.2663 17.1035 14.3166 17.3535 13.2708L15.2979 13.1682ZM8.23047 7.99731C7.44668 8.73304 6.89544 9.68329 6.64551 10.7288L8.7002 10.8303C8.84636 10.4198 9.07165 10.0465 9.35938 9.72388L8.23047 7.99731ZM14.6396 9.72388C14.9275 10.0465 15.1526 10.4198 15.2988 10.8303L17.3535 10.7288C17.1035 9.68315 16.5526 8.73306 15.7686 7.99731L14.6396 9.72388ZM12 6.50024C11.4503 6.50024 10.9216 6.57983 10.4248 6.72876L11.3643 8.55981C11.5686 8.52163 11.7805 8.50024 12 8.50024C12.2192 8.50024 12.4307 8.52175 12.6348 8.55981L13.5742 6.72876C13.0777 6.58 12.5494 6.50024 12 6.50024Z" fill="#E45757" stroke="#E2956B"/>
</svg>
